<?xml version="1.0" standalone="no"?>
<!DOCTYPE svg PUBLIC "-//W3C//DTD SVG 20010904//EN"
 "http://www.w3.org/TR/2001/REC-SVG-20010904/DTD/svg10.dtd">
<svg version="1.0" xmlns="http://www.w3.org/2000/svg"
 width="860.000000pt" height="665.000000pt" viewBox="0 0 860.000000 665.000000"
 preserveAspectRatio="xMidYMid meet">

<g transform="translate(0.000000,665.000000) scale(0.100000,-0.100000)"
fill="#000000" stroke="none">
<path d="M4885 6416 c-86 -21 -147 -57 -221 -130 -79 -79 -117 -149 -140 -254
-20 -99 -20 -1915 0 -2014 23 -105 61 -175 140 -254 80 -79 151 -117 248 -134
44 -7 537 -10 1603 -8 l1540 3 57 21 c145 55 264 185 304 331 18 64 19 122 19
1058 0 941 -1 993 -19 1045 -59 175 -198 305 -364 339 -80 17 -3099 14 -3167
-3z m3167 -17 c153 -33 280 -147 341 -307 l22 -57 3 -977 c3 -1069 4 -1043
-56 -1166 -55 -114 -184 -214 -310 -241 -38 -8 -487 -11 -1580 -11 -1664 0
-1578 -3 -1694 56 -109 55 -205 187 -233 321 -21 99 -22 1915 -1 2014 39 181
171 323 341 365 69 17 3087 20 3167 3z"/>
<path d="M4916 6212 c-31 -62 -31 -61 -6 -55 20 5 20 0 20 -641 l0 -646 -100
0 c-60 0 -100 -4 -100 -10 0 -6 40 -10 100 -10 l100 0 0 -525 c0 -343 3 -525
10 -525 7 0 10 182 10 525 l0 525 160 0 160 0 0 -455 0 -455 45 0 45 0 0 455
0 455 255 0 255 0 0 -455 0 -455 45 0 45 0 0 455 0 455 555 0 555 0 0 -455 0
-455 45 0 45 0 0 455 0 455 400 0 c393 0 400 0 400 -20 0 -11 2 -20 5 -20 10
0 95 44 95 50 0 6 -85 50 -95 50 -3 0 -5 -9 -5 -20 0 -19 -7 -20 -240 -20
l-240 0 0 150 0 150 -167 -2 -168 -3 -3 -147 -3 -148 -429 0 -430 0 0 150 0
150 -165 0 -164 0 -3 -147 -3 -148 -127 -3 -128 -3 0 146 0 145 -170 0 -170 0
0 -145 0 -145 -200 0 -200 0 0 641 c0 632 0 641 20 646 25 7 25 8 -4 63 l-24
44 -26 -52z"/>
<path d="M5093 6093 c-61 -12 -85 -116 -39 -170 32 -37 99 -39 127 -4 10 13
19 27 19 32 0 15 -38 10 -44 -6 -9 -24 -62 -19 -80 7 -33 46 -7 108 44 108 16
0 33 -7 38 -16 7 -12 14 -14 26 -7 16 9 16 11 -1 31 -19 23 -54 32 -90 25z"/>
<path d="M5240 6006 c0 -76 2 -86 22 -100 12 -9 36 -16 53 -16 17 0 41 7 53
16 20 14 22 24 22 100 0 68 -3 84 -15 84 -12 0 -15 -14 -15 -66 0 -76 -12
-104 -43 -104 -38 0 -47 19 -47 97 0 58 -3 73 -15 73 -12 0 -15 -16 -15 -84z"/>
<path d="M5440 5989 c0 -90 2 -100 18 -97 12 2 18 15 20 46 2 23 8 42 14 42 6
0 30 -20 52 -45 61 -66 88 -61 41 7 -24 35 -24 36 -5 53 11 10 20 28 20 41 0
40 -25 54 -96 54 l-64 0 0 -101z m115 46 c0 -16 -8 -21 -37 -23 -35 -3 -38 -1
-38 23 0 24 3 26 38 23 29 -2 37 -7 37 -23z"/>
<path d="M5640 5989 c0 -90 2 -100 18 -97 12 2 18 15 20 46 4 55 24 53 67 -5
16 -23 38 -42 48 -42 23 -1 22 8 -8 51 -24 35 -24 36 -5 53 11 10 20 28 20 41
0 40 -25 54 -96 54 l-64 0 0 -101z m115 46 c0 -16 -8 -21 -37 -23 -35 -3 -38
-1 -38 23 0 24 3 26 38 23 29 -2 37 -7 37 -23z"/>
<path d="M5840 5990 l0 -100 75 0 c68 0 75 2 75 20 0 18 -7 20 -55 20 -52 0
-55 1 -55 25 0 23 3 25 50 25 38 0 50 4 50 15 0 11 -12 15 -50 15 -47 0 -50 2
-50 25 0 24 3 25 55 25 42 0 55 3 55 15 0 12 -15 15 -75 15 l-75 0 0 -100z"/>
<path d="M6020 5990 c0 -93 1 -100 20 -100 18 0 20 7 20 68 l0 67 41 -67 c27
-47 46 -68 60 -68 18 0 19 8 19 100 0 93 -1 100 -20 100 -18 0 -20 -7 -20 -62
l0 -63 -40 63 c-27 43 -46 62 -60 62 -19 0 -20 -6 -20 -100z"/>
<path d="M6210 6075 c0 -10 10 -15 30 -15 l30 0 0 -86 c0 -74 2 -85 16 -82 13
2 17 18 18 83 1 79 1 80 29 83 15 2 27 9 27 18 0 11 -17 14 -75 14 -60 0 -75
-3 -75 -15z"/>
<path d="M7620 4715 c0 -10 10 -15 30 -15 l30 0 0 -79 c0 -58 4 -80 14 -84 23
-9 26 2 26 84 0 77 0 78 27 81 14 2 28 9 31 16 3 9 -17 12 -77 12 -65 0 -81
-3 -81 -15z"/>
<path d="M7805 4635 c0 -84 2 -95 18 -95 15 0 17 11 17 95 0 84 -2 95 -17 95
-16 0 -18 -11 -18 -95z"/>
<path d="M7880 4635 c0 -88 1 -95 20 -95 18 0 20 7 21 68 l1 67 17 -70 c14
-60 20 -69 36 -67 25 5 32 16 39 66 12 77 26 76 26 -1 0 -59 3 -71 16 -69 13
2 16 20 17 99 l2 97 -32 0 c-30 0 -33 -4 -43 -42 -21 -84 -25 -86 -40 -20 -13
61 -13 62 -46 62 l-34 0 0 -95z"/>
<path d="M8112 4634 l3 -96 75 0 c56 0 75 3 75 13 0 10 -17 15 -57 17 -54 3
-58 5 -58 27 0 23 4 25 50 25 41 0 50 3 50 18 0 14 -9 17 -47 17 -42 0 -48 3
-51 23 -3 21 0 22 52 22 43 0 56 3 56 15 0 12 -15 15 -75 15 l-76 0 3 -96z"/>
<path d="M4396 6138 c10 -41 11 -152 0 -198 l-7 -35 20 23 c44 50 49 133 14
208 -21 44 -38 45 -27 2z"/>
<path d="M4235 6096 c-29 -29 -33 -71 -9 -105 14 -20 22 -22 54 -17 35 5 38 4
33 -14 -6 -23 -34 -26 -63 -8 -24 15 -38 3 -24 -20 15 -24 81 -28 105 -6 16
14 19 31 19 100 l0 83 -27 -1 c-16 -1 -36 2 -45 6 -12 5 -25 0 -43 -18z m75
-32 c13 -34 -4 -66 -33 -62 -17 2 -23 11 -25 37 -5 52 40 72 58 25z"/>
<path d="M1923 5498 c-32 -29 -103 -95 -159 -148 -132 -124 -232 -180 -323
-180 -75 0 -186 24 -227 49 -31 19 -114 133 -159 218 -15 29 -31 50 -36 47
-11 -6 8 -45 73 -146 88 -138 151 -174 319 -185 l86 -6 83 43 c60 32 111 70
189 143 58 55 136 124 174 154 37 31 67 57 67 59 0 17 -38 -5 -87 -48z"/>
<path d="M960 5526 c0 -5 12 -56 26 -114 30 -122 27 -170 -14 -230 -58 -85
-126 -122 -241 -133 -46 -4 -88 -12 -94 -18 -14 -14 130 -5 183 11 65 20 149
89 180 148 32 62 33 115 6 224 -14 54 -30 104 -36 110 -5 5 -10 6 -10 2z"/>
<path d="M1936 5443 c-191 -216 -245 -413 -134 -493 113 -82 454 -155 568
-122 30 9 21 10 -65 11 -123 2 -226 20 -349 61 -200 66 -236 141 -152 316 38
78 144 225 187 256 25 19 31 39 11 38 -4 -1 -33 -31 -66 -67z"/>
<path d="M4364 5196 c-10 -8 -16 -17 -13 -21 9 -8 59 16 53 26 -7 13 -17 11
-40 -5z"/>
<path d="M4237 5126 c-22 -13 -34 -27 -28 -30 12 -8 91 30 91 44 0 16 -22 11
-63 -14z"/>
<path d="M4100 5048 c-19 -12 -37 -23 -39 -24 -1 -2 0 -7 3 -13 7 -11 96 35
96 50 0 15 -23 10 -60 -13z"/>
<path d="M630 4985 c0 -2 26 -17 57 -32 70 -34 147 -108 173 -165 39 -87 20
-183 -47 -234 -47 -35 -89 -49 -251 -84 -130 -27 -151 -34 -140 -45 10 -11
324 67 364 91 56 32 102 86 110 130 8 46 -1 116 -22 156 -26 49 -102 125 -159
158 -47 27 -85 38 -85 25z"/>
<path d="M3952 4963 c-25 -15 -40 -29 -34 -35 11 -11 92 32 92 50 0 17 -9 15
-58 -15z"/>
<path d="M3812 4883 c-26 -16 -40 -29 -34 -35 5 -5 24 0 48 13 51 29 49 28 38
38 -5 6 -26 -1 -52 -16z"/>
<path d="M416 4843 c17 -50 17 -109 0 -166 -11 -37 -11 -47 -2 -47 20 0 48 74
48 127 0 56 -25 123 -45 123 -13 0 -13 -5 -1 -37z"/>
<path d="M1360 4868 c-19 -7 -58 -35 -87 -64 -42 -42 -53 -59 -58 -98 -9 -58
12 -119 57 -165 48 -49 85 -64 168 -69 68 -3 80 -1 130 25 34 18 66 45 85 72
26 36 30 52 30 105 0 51 -5 70 -27 104 -42 62 -105 94 -192 98 -39 2 -87 -2
-106 -8z m204 -34 c65 -33 99 -84 103 -151 2 -54 2 -55 -8 -23 -14 49 -52 80
-97 80 -46 0 -75 -19 -92 -59 -36 -88 65 -166 148 -114 l27 17 -25 -28 c-52
-59 -165 -83 -251 -55 -113 38 -168 152 -120 247 24 46 45 65 101 92 58 27
157 24 214 -6z m37 -127 c9 -7 14 -18 12 -24 -3 -7 0 -13 6 -13 23 0 11 -58
-15 -79 -33 -26 -48 -26 -85 0 -21 15 -29 29 -29 50 0 17 4 28 9 25 5 -4 7 3
4 14 -9 33 64 53 98 27z"/>
<path d="M1518 4693 c7 -3 16 -2 19 1 4 3 -2 6 -13 5 -11 0 -14 -3 -6 -6z"/>
<path d="M1602 4623 c2 -12 -3 -17 -13 -15 -9 1 -19 -4 -22 -12 -6 -16 16 -12
41 7 15 12 16 37 2 37 -6 0 -10 -8 -8 -17z"/>
<path d="M260 4815 c-18 -22 -4 -31 25 -15 18 10 28 11 36 3 14 -14 3 -33 -19
-33 -24 0 -62 -28 -62 -45 0 -26 31 -47 59 -40 14 3 36 6 49 6 20 -1 22 4 22
57 0 32 -5 63 -12 70 -17 17 -83 15 -98 -3z m68 -82 c-4 -23 -48 -31 -48 -10
0 9 6 18 13 20 25 11 38 7 35 -10z"/>
<path d="M2740 4720 l0 -99 33 1 c19 1 39 -2 44 -5 6 -4 22 3 37 14 20 16 26
29 26 60 0 60 -54 101 -88 67 -9 -9 -12 -4 -12 25 0 30 -4 37 -20 37 -19 0
-20 -7 -20 -100z m99 -2 c17 -47 -14 -93 -45 -67 -14 12 -19 70 -7 82 14 15
44 6 52 -15z"/>
<path d="M2917 4788 c11 -43 10 -154 -1 -198 -8 -35 -8 -35 12 -17 44 39 52
149 16 218 -20 40 -38 38 -27 -3z"/>
<path d="M3663 4798 c-32 -19 -43 -38 -24 -38 16 0 81 41 81 51 0 14 -22 9
-57 -13z"/>
<path d="M2065 4774 c-185 -37 -197 -43 -226 -107 -51 -115 -24 -231 80 -348
52 -58 175 -149 237 -175 64 -27 47 -8 -38 41 -99 57 -223 178 -259 250 -32
66 -32 159 -2 227 20 44 25 48 90 68 49 16 109 23 215 29 81 3 150 10 154 14
7 7 -214 8 -251 1z"/>
<path d="M3525 4719 c-16 -10 -34 -21 -40 -23 -7 -2 -7 -7 0 -14 11 -11 95 32
95 49 0 14 -22 9 -55 -12z"/>
<path d="M3288 4627 c-38 -51 -60 -88 -55 -93 2 -2 36 -1 75 2 64 6 70 9 62
25 -16 28 -13 34 31 58 25 15 37 27 31 33 -6 6 -23 1 -47 -13 l-38 -23 -17 22
-18 22 -24 -33z"/>
<path d="M2815 4490 c-22 -10 -47 -25 -55 -32 -32 -27 -69 -84 -79 -125 l-12
-42 -90 -3 -91 -3 -72 -135 c-40 -74 -143 -269 -230 -432 -87 -164 -160 -298
-162 -298 -2 0 -29 14 -59 31 -43 24 -61 29 -86 24 -56 -12 -117 -89 -224
-277 -96 -169 -101 -176 -118 -159 -17 17 -16 19 17 54 63 67 60 145 -8 253
-29 46 -46 85 -51 119 -13 99 -37 200 -55 236 -25 48 -72 87 -115 95 l-35 6 0
82 c0 266 88 402 266 414 45 3 71 -1 105 -16 24 -11 130 -48 234 -82 212 -70
265 -93 265 -116 0 -14 2 -14 15 0 8 8 15 17 15 19 0 11 -109 55 -295 118
-110 37 -218 75 -240 83 -128 49 -279 -19 -338 -151 -38 -86 -51 -200 -44
-388 8 -180 25 -301 61 -425 39 -134 61 -177 136 -258 38 -43 70 -79 70 -82 0
-3 -11 -22 -23 -43 l-23 -39 -101 115 c-106 121 -123 151 -163 301 -39 141
-51 251 -60 516 -9 287 -20 353 -73 443 -64 108 -122 137 -298 144 -85 4 -138
1 -196 -11 -44 -9 -98 -16 -119 -17 -21 0 -48 -4 -59 -9 -29 -13 101 -13 145
0 81 24 213 31 296 16 105 -18 155 -45 195 -102 65 -95 89 -206 89 -413 l0
-117 -28 -10 c-73 -28 -91 -182 -47 -399 29 -148 63 -229 125 -298 52 -58 110
-90 169 -91 39 -1 48 -6 79 -44 l35 -42 -111 -193 c-60 -105 -120 -212 -132
-237 -29 -58 -32 -140 -6 -168 32 -36 246 -152 279 -152 49 0 128 91 220 253
43 75 80 137 83 137 2 0 50 -20 106 -45 107 -47 183 -65 280 -65 49 0 59 3 75
26 17 23 23 25 53 17 19 -5 34 -12 32 -16 -5 -13 28 -65 54 -86 l27 -21 -27
-173 c-29 -187 -31 -233 -16 -289 17 -60 40 -71 199 -93 127 -17 146 -17 169
-4 48 27 72 94 102 290 18 112 34 185 42 190 7 5 52 9 101 9 75 0 90 3 108 21
18 18 27 20 48 13 21 -8 27 -18 32 -51 6 -48 15 -61 69 -98 57 -40 124 -54
296 -65 83 -5 163 -14 178 -20 15 -5 48 -10 74 -10 99 0 172 38 172 90 0 25 2
26 103 40 56 8 149 15 207 15 99 0 109 -2 169 -33 36 -18 110 -65 165 -105
116 -83 178 -117 216 -117 27 0 60 -27 60 -48 0 -7 -27 -25 -59 -41 -33 -16
-74 -39 -93 -51 -36 -25 -138 -126 -138 -138 0 -4 -40 -26 -88 -48 -48 -23
-112 -60 -142 -83 -77 -58 -218 -126 -325 -156 -49 -14 -175 -36 -278 -49
-171 -21 -208 -29 -196 -40 4 -4 137 13 324 40 60 8 145 27 190 41 93 29 245
105 290 145 40 34 195 111 348 173 118 46 142 51 116 19 -11 -14 -11 -18 5
-29 22 -17 48 -8 44 14 -4 30 22 60 60 70 82 21 136 23 176 6 28 -12 55 -15
90 -11 48 6 89 -5 69 -17 -5 -3 -51 -9 -101 -13 -51 -4 -92 -11 -92 -15 0 -12
59 -11 155 2 83 11 168 2 290 -34 28 -8 75 -17 105 -21 51 -6 53 -6 30 7 -14
8 -48 17 -77 21 -28 4 -67 13 -85 20 -18 7 -54 17 -80 20 -25 4 -49 13 -51 20
-4 11 -72 37 -132 50 -5 2 35 6 90 10 82 5 112 3 168 -13 37 -10 74 -26 81
-36 11 -15 16 -16 35 -5 26 14 24 17 -27 42 l-37 18 44 -5 c26 -4 86 -28 145
-59 56 -30 128 -63 161 -74 192 -66 293 -92 388 -102 146 -15 877 -26 877 -13
0 7 -145 12 -407 16 -225 4 -446 11 -493 17 -101 13 -400 107 -480 152 -134
75 -148 80 -267 89 -174 13 -238 36 -322 114 -25 23 -56 48 -69 54 -12 7 -88
21 -168 31 -80 11 -155 25 -167 31 -12 7 -77 49 -143 95 -198 136 -268 157
-434 129 -56 -9 -138 -20 -181 -24 -77 -7 -80 -6 -85 16 -8 32 -67 80 -111 92
-21 6 -88 17 -148 25 -74 10 -129 23 -169 42 -109 50 -296 33 -296 -26 0 -24
-15 -25 -64 -5 -29 12 -36 21 -36 43 0 52 -106 132 -175 132 -14 0 -25 3 -25
8 0 4 12 79 25 167 30 197 31 246 4 302 -21 44 -57 63 -121 63 -15 0 -29 4
-33 10 -3 5 99 229 226 497 296 624 299 630 292 637 -4 3 -45 6 -93 6 l-86 0
-11 43 c-29 105 -125 177 -237 177 -39 0 -75 -7 -101 -20z m184 -12 c48 -15
107 -72 127 -123 40 -106 -4 -216 -105 -267 -154 -78 -325 20 -325 187 0 159
142 254 303 203z m-323 -235 c18 -86 64 -145 139 -179 91 -43 201 -24 270 44
44 44 61 74 70 125 l7 37 79 0 c44 0 79 -2 79 -5 0 -4 -123 -265 -325 -690
-36 -77 -94 -198 -127 -270 -34 -71 -67 -135 -72 -142 -9 -10 -26 -10 -78 -1
-77 12 -104 2 -139 -55 -27 -46 -35 -78 -66 -284 l-27 -184 -32 -14 c-18 -7
-40 -25 -49 -38 -15 -24 -18 -25 -53 -13 -32 11 -37 18 -39 47 -7 84 -38 115
-153 149 -93 28 -170 60 -170 71 0 4 40 79 90 165 143 249 146 295 25 364 -30
17 -55 36 -55 41 0 7 416 799 447 852 2 4 42 7 88 7 84 0 85 0 91 -27z m-1309
-483 c53 -32 86 -121 109 -298 5 -38 19 -72 50 -120 44 -68 62 -130 50 -176
-7 -30 -53 -86 -70 -86 -6 0 -32 25 -58 55 -75 89 -135 307 -153 553 -7 92 -7
92 16 92 13 0 38 -9 56 -20z m-217 -12 c0 -7 5 -62 10 -123 14 -146 34 -248
77 -377 32 -96 41 -114 94 -172 33 -35 59 -67 59 -70 0 -12 -46 -5 -86 13 -50
23 -113 87 -148 150 -52 97 -102 390 -82 492 8 45 42 99 61 99 8 0 15 -6 15
-12z m871 -353 c62 -36 122 -75 132 -86 38 -46 20 -101 -98 -304 -45 -77 -159
-275 -255 -440 -95 -165 -181 -311 -192 -324 -26 -34 -79 -71 -100 -71 -28 0
-247 129 -264 155 -32 49 -7 110 183 435 65 113 170 294 233 403 63 108 127
214 144 233 24 30 73 62 97 64 3 0 57 -29 120 -65z m771 -266 c155 -22 160
-24 180 -92 15 -49 18 -22 -106 -839 -46 -303 -65 -369 -111 -390 -17 -8 -60
-5 -162 10 -112 17 -141 25 -155 42 -34 42 -33 99 11 389 23 152 58 381 77
510 38 261 41 274 62 316 12 26 51 75 58 75 1 0 67 -9 146 -21z m-774 -328
c20 -10 76 -30 124 -45 48 -15 99 -36 113 -49 25 -21 46 -79 38 -104 -5 -13
-182 44 -302 98 l-69 31 25 44 c14 24 27 44 29 44 3 0 21 -8 42 -19z m-28
-121 c39 -20 297 -108 408 -140 70 -20 72 -22 66 -48 -4 -15 -8 -29 -10 -31
-11 -13 -557 170 -570 190 -3 6 2 21 11 35 18 27 30 26 95 -6z m-63 -71 c26
-12 113 -43 191 -69 79 -27 146 -51 149 -54 3 -3 0 -12 -7 -21 -27 -33 -196
-14 -302 34 -35 16 -80 36 -100 44 l-38 16 21 35 c12 20 25 36 29 36 5 0 30
-9 57 -21z m549 -34 c-8 -40 -6 -38 -40 -25 -31 11 -26 34 13 54 33 18 35 15
27 -29z m571 -16 c50 -24 83 -62 83 -95 0 -20 -3 -22 -30 -14 -17 5 -63 12
-101 16 l-71 7 6 30 c3 16 6 40 6 53 0 20 5 24 32 24 17 0 51 -9 75 -21z m501
-124 c40 -19 93 -31 177 -41 140 -18 197 -39 220 -83 15 -29 15 -32 -2 -38
-27 -10 -308 15 -404 36 -47 11 -129 34 -183 52 -88 29 -96 34 -90 53 9 30 18
37 56 47 58 15 164 2 226 -26z m-1120 9 c16 -5 22 -14 22 -35 0 -35 -10 -37
-37 -6 -41 46 -38 55 15 41z m644 -8 c40 -8 125 -35 188 -59 122 -48 269 -88
386 -106 159 -24 421 -19 563 10 30 6 91 11 135 11 115 -1 163 -21 336 -143
122 -86 143 -96 226 -109 38 -6 70 -12 71 -14 2 -2 -1 -15 -6 -29 -7 -18 -15
-24 -29 -20 -11 2 -23 0 -26 -6 -4 -6 -15 -7 -29 -1 -12 5 -38 11 -58 15 -20
3 -73 31 -125 67 -49 34 -117 81 -151 104 -34 23 -91 52 -128 64 -76 25 -162
24 -355 -4 -281 -41 -575 -7 -847 100 -123 48 -242 84 -280 84 -22 0 -32 27
-16 43 10 11 65 8 145 -7z m-40 -73 c67 -16 91 -34 72 -53 -5 -4 -52 -10 -104
-12 l-95 -3 3 35 c2 19 6 38 9 43 7 11 39 9 115 -10z m305 -109 c162 -49 259
-65 451 -71 158 -5 182 -8 182 -22 0 -26 -13 -39 -53 -56 -41 -17 -133 -20
-172 -5 -15 6 -95 15 -178 20 -210 13 -253 25 -314 83 -23 21 -33 40 -33 60 0
22 4 28 15 23 8 -3 54 -17 102 -32z m1750 -240 c-3 -3 -12 -4 -19 -1 -8 3 -5
6 6 6 11 1 17 -2 13 -5z m-14 -20 c47 -7 106 -38 154 -82 18 -16 48 -35 65
-42 18 -6 42 -15 53 -20 13 -4 -24 -10 -97 -15 -64 -4 -121 -4 -127 0 -6 3
-27 37 -46 75 -19 38 -45 76 -57 85 -17 13 -18 16 -5 11 10 -3 37 -9 60 -12z
m-61 -36 c9 -7 28 -41 42 -75 l25 -63 -22 -4 c-87 -18 -106 -14 -73 13 22 19
28 70 11 104 -8 17 -15 32 -15 34 0 7 17 2 32 -9z m-23 -68 c0 -10 -3 -8 -9 5
-12 27 -12 43 0 25 5 -8 9 -22 9 -30z m-61 -75 c-22 -22 -67 -46 -138 -73 -58
-21 -107 -38 -109 -35 -13 10 71 75 142 110 45 23 93 50 107 61 l25 20 3 -25
c3 -18 -6 -34 -30 -58z"/>
<path d="M2823 4317 c-35 -17 -63 -34 -63 -37 0 -5 125 -70 135 -70 3 0 5 14
5 30 l0 30 110 0 c67 0 110 4 110 10 0 6 -43 10 -110 10 l-110 0 0 30 c0 17
-3 30 -7 29 -5 0 -36 -14 -70 -32z"/>
<path d="M2551 4183 c-1 -16 -7 -23 -21 -23 -11 0 -20 -4 -20 -10 0 -5 9 -10
20 -10 14 0 20 -7 20 -21 0 -11 4 -18 10 -14 5 3 7 12 3 20 -3 10 1 15 15 15
12 0 24 5 27 10 3 6 -5 10 -19 10 -18 0 -26 6 -29 23 l-4 22 -2 -22z"/>
<path d="M866 3503 c11 -36 12 -171 1 -200 -6 -15 -5 -23 3 -23 17 0 50 81 50
125 0 45 -33 125 -51 125 -8 0 -9 -8 -3 -27z"/>
<path d="M720 3460 c-45 -45 -13 -130 48 -130 16 0 36 8 45 18 22 24 21 32 -3
32 -11 0 -20 -5 -20 -11 0 -6 -10 -9 -22 -7 -20 3 -23 9 -23 43 0 31 4 41 19
43 10 2 22 -2 26 -8 5 -7 16 -10 25 -6 17 6 17 8 0 26 -23 26 -69 26 -95 0z"/>
<path d="M930 2538 c-1 -2 -2 -47 -3 -101 -2 -87 0 -97 16 -97 14 0 17 9 17
49 0 51 18 78 45 67 11 -4 15 -21 15 -61 0 -48 2 -55 20 -55 17 0 20 7 20 53
0 76 -29 105 -82 82 -15 -6 -18 -2 -18 29 0 25 -4 36 -15 36 -8 0 -15 -1 -15
-2z"/>
<path d="M1096 2510 c11 -44 12 -155 1 -197 -6 -23 -5 -33 3 -33 13 0 40 60
47 107 7 43 -14 117 -39 140 -20 18 -20 18 -12 -17z"/>
<path d="M5100 2353 c0 -29 -3 -34 -12 -25 -34 34 -88 -7 -88 -66 0 -53 22
-70 88 -70 l52 0 0 99 c0 92 -1 99 -20 99 -16 0 -20 -7 -20 -37z m-2 -81 c3
-32 -11 -62 -29 -62 -5 0 -16 11 -25 25 -22 34 -5 78 29 73 17 -2 23 -11 25
-36z"/>
<path d="M5175 2373 c24 -56 29 -115 14 -174 -18 -68 -4 -82 24 -24 32 68 11
215 -31 215 -10 0 -12 -5 -7 -17z"/>
<path d="M3936 1663 c11 -35 12 -159 1 -195 -12 -46 12 -33 35 19 23 52 21
120 -7 172 -20 39 -40 42 -29 4z"/>
<path d="M5345 1634 c-166 -14 -250 -27 -420 -64 -55 -12 -110 -24 -122 -26
-13 -3 -23 -8 -23 -13 0 -10 88 3 215 33 110 26 206 39 425 57 137 10 153 10
255 -11 61 -12 165 -25 232 -30 67 -4 127 -11 133 -15 11 -7 362 -27 502 -29
57 -1 78 2 78 12 0 9 -20 12 -77 10 -103 -2 -489 18 -503 27 -6 4 -68 11 -138
16 -70 5 -157 15 -194 23 -104 23 -190 25 -363 10z"/>
<path d="M3792 1624 c-29 -20 -31 -93 -4 -117 25 -23 75 -21 96 2 16 17 16 19
-1 23 -10 3 -24 -1 -31 -9 -10 -10 -18 -10 -32 -3 -34 18 -22 30 30 30 47 0
50 2 50 25 0 53 -62 82 -108 49z m68 -29 c11 -13 7 -15 -23 -15 -28 0 -35 3
-31 15 4 8 14 15 24 15 10 0 23 -7 30 -15z"/>
<path d="M4705 1586 c-78 -25 -321 -118 -365 -140 -25 -13 -85 -43 -135 -68
-61 -31 -109 -48 -148 -53 -31 -3 -55 -10 -52 -15 15 -24 173 20 255 71 78 48
453 199 494 199 8 0 18 5 21 10 8 13 -21 12 -70 -4z"/>
<path d="M6515 1508 c-27 -3 -194 -4 -370 -1 -209 4 -344 2 -390 -6 -131 -20
-220 -39 -305 -66 -163 -51 -191 -55 -345 -57 -82 0 -160 2 -172 6 -14 4 -23
3 -23 -3 0 -18 44 -24 189 -22 154 1 198 9 366 60 55 17 129 36 165 42 36 6
90 15 120 20 30 5 215 9 410 8 195 -1 378 1 405 4 28 3 71 6 98 6 26 1 47 6
47 11 0 11 -104 10 -195 -2z"/>
<path d="M6205 1430 c-147 -32 -166 -38 -326 -108 -199 -86 -240 -96 -559
-132 -197 -22 -410 -27 -550 -11 -52 6 -89 6 -94 0 -6 -6 -6 -9 0 -10 5 0 72
-6 149 -12 163 -15 339 -7 584 23 219 28 292 47 474 124 165 69 217 86 347
111 108 21 120 24 120 36 0 11 10 13 -145 -21z"/>
<path d="M4740 1434 c-213 -26 -354 -55 -486 -99 -72 -25 -142 -45 -157 -45
-31 0 -57 -9 -57 -20 0 -16 87 3 215 46 143 48 337 85 553 105 72 7 132 16
132 21 0 11 -63 8 -200 -8z"/>
<path d="M6398 1415 c-20 -7 -77 -21 -125 -30 -48 -9 -156 -39 -238 -66 -116
-38 -162 -59 -200 -89 -80 -63 -125 -87 -215 -115 -47 -14 -125 -39 -175 -55
-124 -40 -180 -48 -399 -61 -105 -6 -193 -13 -195 -15 -14 -13 28 -14 200 -4
198 11 309 27 371 53 19 8 77 27 129 41 142 40 191 62 273 124 66 50 93 63
223 105 81 26 182 54 223 62 118 23 200 47 194 56 -7 12 -21 10 -66 -6z"/>
<path d="M6740 1423 c-171 -12 -383 -55 -508 -103 -73 -28 -229 -107 -237
-120 -14 -22 -192 -158 -260 -198 -38 -22 -117 -60 -173 -82 -300 -120 -603
-143 -719 -54 -18 13 -90 46 -160 73 -71 27 -173 71 -228 99 -138 70 -192 90
-293 108 -99 18 -510 32 -535 18 -10 -6 55 -10 171 -11 208 -2 376 -21 471
-53 35 -11 116 -47 180 -79 64 -32 168 -77 231 -101 63 -24 129 -54 146 -66
131 -100 444 -77 764 57 129 54 206 101 341 210 267 215 546 289 1087 289 128
0 202 4 202 10 0 9 -362 12 -480 3z"/>
<path d="M4470 1310 c-30 -4 -92 -13 -138 -19 -108 -14 -262 -50 -262 -62 0
-9 39 -4 115 17 28 7 86 18 130 24 44 5 109 14 145 20 36 5 190 10 343 10 183
0 276 3 272 10 -7 12 -520 12 -605 0z"/>
<path d="M4140 1192 c0 -6 42 -11 103 -14 86 -3 111 -8 157 -30 141 -68 147
-70 446 -98 126 -12 224 -8 224 10 0 4 -27 6 -60 3 -77 -7 -402 24 -460 44
-25 8 -81 31 -125 51 -70 31 -92 36 -182 40 -66 3 -103 1 -103 -6z"/>
<path d="M5525 984 c-166 -82 -213 -94 -382 -94 -89 0 -143 -4 -143 -10 0 -6
52 -10 137 -10 160 0 234 15 338 69 39 20 94 47 123 60 28 13 52 28 52 32 0
14 -10 11 -125 -47z"/>
<path d="M6502 898 l-134 -82 144 -56 143 -56 3 58 c2 36 7 58 15 58 26 0 604
51 635 56 23 3 32 10 32 24 0 26 -11 26 -354 -5 -153 -14 -290 -25 -305 -25
-26 0 -28 4 -37 55 l-9 56 -133 -83z"/>
<path d="M6970 600 c0 -142 1 -150 20 -150 17 0 19 8 22 68 l3 67 68 3 c51 2
67 6 67 17 0 12 -15 15 -71 15 l-70 0 3 48 3 47 78 3 c59 2 77 6 77 17 0 12
-19 15 -100 15 l-100 0 0 -150z"/>
<path d="M3842 679 c2 -32 1 -59 -3 -59 -5 0 -158 -13 -341 -30 -183 -16 -334
-30 -335 -30 -2 0 -3 -11 -3 -25 0 -23 3 -25 38 -20 86 12 644 57 648 52 2 -2
7 -27 11 -56 3 -28 8 -51 10 -51 7 0 253 151 257 158 2 4 -62 33 -141 64
l-145 57 4 -60z"/>
<path d="M2836 634 c-9 -8 -16 -22 -16 -30 0 -8 -4 -14 -10 -14 -5 0 -10 -7
-10 -15 0 -8 5 -15 10 -15 6 0 10 -25 10 -55 0 -48 2 -55 20 -55 18 0 20 7 20
55 0 42 3 55 15 55 8 0 15 7 15 15 0 8 -7 15 -15 15 -23 0 -18 27 6 33 12 3
18 10 14 16 -9 16 -41 13 -59 -5z"/>
<path d="M2916 620 c11 -45 11 -167 0 -202 -6 -20 -5 -28 3 -28 14 0 41 59 48
107 7 43 -14 117 -39 140 -20 18 -20 18 -12 -17z"/>
<path d="M3440 300 c0 -143 1 -150 20 -150 18 0 20 7 20 70 l0 70 65 0 c51 0
65 3 65 15 0 12 -14 15 -65 15 l-65 0 0 50 0 50 80 0 c64 0 80 3 80 15 0 12
-18 15 -100 15 l-100 0 0 -150z"/>
</g>
</svg>
