<?xml version="1.0" standalone="no"?>
<!DOCTYPE svg PUBLIC "-//W3C//DTD SVG 20010904//EN"
 "http://www.w3.org/TR/2001/REC-SVG-20010904/DTD/svg10.dtd">
<svg version="1.0" xmlns="http://www.w3.org/2000/svg"
 width="860.000000pt" height="815.000000pt" viewBox="0 0 860.000000 815.000000"
 preserveAspectRatio="xMidYMid meet">

<g transform="translate(0.000000,815.000000) scale(0.100000,-0.100000)"
fill="#000000" stroke="none">
<path d="M3386 8121 c5 -5 86 -25 179 -45 94 -21 178 -40 188 -43 18 -5 18
-17 11 -226 -7 -220 -12 -257 -55 -392 -22 -68 -22 -83 -24 -530 0 -272 -6
-509 -13 -580 -6 -68 -12 -280 -12 -487 l0 -368 -58 0 c-32 0 -92 9 -133 20
-103 27 -160 26 -207 -5 -65 -43 -165 -73 -394 -120 -254 -52 -389 -64 -520
-45 l-86 12 -5 36 c-2 21 0 89 5 152 9 107 -8 1509 -18 1519 -2 2 -7 2 -10 -1
-3 -4 -1 -249 5 -545 6 -296 11 -578 11 -626 l0 -88 -31 22 c-17 12 -47 22
-66 23 -51 1 -71 -30 -87 -139 -13 -84 -15 -90 -53 -124 -22 -20 -75 -62 -119
-93 -93 -68 -91 -69 -93 73 -1 58 -8 105 -21 145 -19 55 -20 67 -9 232 l12
173 -27 48 c-59 110 -81 306 -71 641 5 175 3 254 -9 355 -30 248 -15 527 39
732 31 119 45 151 85 196 21 25 27 37 17 37 -21 0 -66 -63 -89 -123 -47 -123
-88 -374 -88 -534 0 -90 -3 -94 -67 -77 -40 11 -23 98 24 127 33 20 10 164
-58 349 -33 91 -47 119 -75 142 -43 36 -64 75 -64 121 0 19 -4 35 -10 35 -15
0 -12 -56 5 -98 8 -20 31 -51 50 -67 27 -23 44 -54 71 -125 70 -187 93 -322
58 -351 -24 -20 -44 -65 -44 -99 0 -29 -2 -31 -27 -26 -16 3 -190 28 -388 55
-198 28 -504 71 -680 95 -180 25 -324 41 -329 36 -5 -5 11 -11 35 -15 24 -3
202 -28 394 -54 193 -27 519 -73 727 -102 l376 -52 7 -89 c4 -49 5 -91 2 -94
-2 -3 -89 6 -193 20 -104 14 -439 57 -744 96 -305 38 -570 73 -587 75 -18 3
-33 2 -33 -4 0 -12 2 -12 425 -66 783 -99 1140 -146 1145 -151 3 -3 5 -164 6
-357 1 -423 10 -509 71 -634 l25 -51 -10 -171 c-10 -155 -10 -174 7 -223 23
-69 39 -314 19 -302 -7 4 -54 35 -104 70 l-91 63 -5 88 c-4 67 -14 113 -42
193 -21 58 -53 155 -73 215 -19 61 -62 175 -95 255 -53 130 -67 154 -131 228
-124 141 -216 194 -341 195 -146 2 -272 -11 -329 -33 -105 -40 -222 -181 -284
-345 -14 -38 -44 -110 -65 -159 -22 -49 -51 -132 -66 -185 -26 -93 -27 -105
-27 -346 0 -175 4 -256 13 -271 10 -20 7 -26 -42 -63 -61 -47 -94 -81 -78 -81
5 0 37 23 70 50 33 28 63 50 66 50 11 0 76 -139 101 -214 13 -42 29 -120 35
-175 16 -144 46 -236 103 -313 28 -38 37 -35 37 11 0 46 10 101 19 101 3 0 15
-19 25 -41 22 -45 65 -86 100 -95 22 -5 24 -11 29 -122 11 -248 98 -423 257
-521 l45 -28 80 44 c144 78 206 170 225 333 5 41 21 113 35 160 14 47 28 114
32 150 4 50 13 76 38 115 18 28 58 89 89 138 30 48 60 87 65 87 6 0 19 -10 30
-22 l20 -21 12 29 c6 16 13 81 14 144 1 63 8 143 14 177 6 34 11 85 10 115 -1
54 9 128 18 128 13 0 201 -138 229 -167 17 -18 38 -33 47 -33 18 0 21 -10 36
-94 16 -88 14 -99 -18 -118 -41 -23 -67 -78 -91 -197 -42 -207 -84 -288 -216
-416 -342 -332 -514 -597 -563 -865 -5 -30 -13 -89 -16 -132 l-7 -76 -91 41
c-126 58 -184 113 -243 232 -26 51 -48 113 -51 138 -5 42 -8 47 -37 53 -43 9
-97 38 -123 66 -42 45 -47 74 -48 273 -1 183 -6 225 -27 225 -6 0 -7 -7 -2
-17 5 -10 9 -103 9 -208 1 -170 3 -195 21 -235 12 -25 30 -53 42 -63 l20 -18
-25 -55 c-22 -50 -36 -144 -23 -157 7 -7 132 35 162 55 l25 16 39 -81 c56
-115 113 -170 252 -240 61 -32 112 -60 112 -62 0 -21 -107 -298 -125 -325 -13
-19 -61 -111 -106 -205 -45 -93 -121 -231 -168 -307 -72 -115 -91 -137 -116
-143 -23 -5 -68 -51 -194 -198 -188 -219 -200 -240 -173 -319 13 -42 27 -60
67 -91 157 -119 333 -195 480 -205 64 -4 98 -13 170 -45 49 -22 98 -48 108
-58 10 -11 25 -19 35 -19 70 -2 128 -15 232 -50 116 -38 125 -40 249 -40 135
0 181 9 219 44 34 30 49 63 57 127 6 50 4 58 -19 86 -31 36 -109 72 -176 80
l-49 6 34 49 c19 27 42 74 51 103 14 44 22 55 43 59 25 5 584 86 594 86 6 0
-19 -118 -33 -155 -10 -26 -13 -28 -21 -13 -14 25 -55 22 -73 -4 -10 -14 -16
-44 -16 -78 0 -30 -9 -87 -20 -125 -12 -39 -22 -100 -24 -136 -2 -37 -9 -75
-14 -85 -5 -11 -13 -44 -17 -75 -6 -47 -3 -63 15 -100 36 -70 59 -98 98 -118
33 -16 48 -17 137 -8 55 6 346 10 647 11 l548 1 0 -37 c0 -21 16 -113 35 -205
20 -91 32 -170 28 -173 -5 -4 -102 -25 -218 -47 -1138 -216 -2925 -570 -2925
-579 0 -8 45 -14 133 -18 l132 -7 485 96 c267 53 699 138 960 190 261 52 691
137 955 190 264 52 485 95 491 95 12 0 12 0 80 -330 26 -124 48 -227 50 -229
17 -20 8 45 -40 281 -31 150 -65 311 -75 358 -68 301 -73 345 -69 530 5 189
17 243 65 307 16 21 171 125 422 284 396 252 429 274 420 283 -3 3 -145 -83
-315 -192 -170 -109 -351 -224 -402 -256 l-93 -58 -77 28 -77 29 66 6 c37 4
79 14 95 22 34 18 116 102 168 172 35 47 42 51 119 72 164 43 266 94 368 182
l52 44 86 -29 c98 -33 153 -35 491 -20 158 7 204 12 240 28 39 17 59 19 150
13 211 -13 654 -63 663 -76 2 -2 34 -48 71 -101 37 -54 70 -98 75 -98 4 0 53
15 109 34 56 19 102 33 102 31 0 -3 -18 -34 -40 -70 -62 -102 -113 -207 -225
-470 -57 -134 -113 -261 -124 -282 -37 -73 -289 -274 -441 -353 -127 -65 -220
-90 -335 -90 l-90 0 -130 71 c-308 168 -523 336 -687 539 -20 25 -39 42 -42
39 -20 -19 218 -265 352 -364 107 -79 273 -182 388 -242 77 -39 94 -52 94 -71
0 -54 -52 -112 -100 -112 -13 0 -71 23 -127 51 -110 55 -161 100 -184 163 -13
35 -29 49 -29 24 0 -26 59 -115 92 -140 18 -14 79 -48 134 -76 58 -29 113 -64
128 -82 35 -43 53 -112 68 -264 7 -71 18 -131 23 -133 14 -4 -9 229 -30 311
-9 33 -27 75 -41 93 l-25 32 26 7 c33 8 73 56 81 99 l6 35 88 0 c201 0 410 96
645 298 39 33 72 59 74 57 2 -2 -6 -17 -18 -33 -26 -37 -56 -148 -76 -277 -16
-108 -20 -558 -5 -605 4 -14 8 -23 9 -20 1 3 2 142 4 310 3 270 6 316 25 405
23 101 28 114 119 285 28 52 99 208 158 345 106 249 163 365 236 481 38 60 39
61 111 79 40 10 110 20 155 23 70 4 85 8 104 28 18 19 33 24 73 24 91 0 227
20 453 66 l223 45 52 -23 c43 -19 69 -23 135 -21 97 2 135 19 162 71 11 20 38
52 61 70 45 37 70 80 94 161 14 47 14 56 1 74 -22 31 -18 56 9 68 28 13 46 48
46 89 l0 28 153 -5 153 -6 95 52 c53 28 99 51 102 51 4 0 7 -32 7 -70 0 -70
-16 -128 -45 -160 -12 -13 -16 -54 -19 -176 -6 -224 -45 -463 -107 -652 -23
-68 -179 -311 -281 -437 -57 -71 -272 -278 -318 -307 -14 -9 -41 -19 -60 -23
-22 -5 -50 -23 -76 -50 -23 -23 -68 -58 -100 -77 -43 -25 -58 -40 -57 -54 15
-115 15 -140 -1 -153 -41 -35 -151 -1 -181 55 -37 68 -128 141 -258 203 -153
74 -360 174 -369 179 -5 2 -8 -1 -8 -7 0 -14 68 -49 249 -131 178 -80 246
-119 306 -176 63 -61 75 -83 78 -152 3 -51 9 -69 36 -108 33 -46 34 -47 28
-132 -3 -48 -17 -125 -31 -172 -14 -47 -22 -88 -17 -93 13 -13 63 184 69 271
5 81 4 84 -28 128 -18 26 -34 63 -38 86 l-5 41 29 -7 c16 -4 54 -10 86 -13 52
-5 57 -4 73 21 14 20 16 39 12 79 -3 29 -8 59 -12 68 -5 13 8 26 52 52 32 20
76 54 97 76 22 22 53 43 70 47 65 14 126 62 300 239 119 121 327 418 367 524
61 164 109 443 114 669 2 84 7 158 13 165 32 40 46 89 52 179 l6 97 46 40 c78
69 82 99 35 316 -61 288 -264 1010 -314 1124 -42 94 -63 162 -80 256 -8 50
-30 142 -49 206 -44 156 -212 606 -239 644 -43 59 -55 92 -54 154 1 66 -5 80
-70 160 -99 121 -546 466 -683 525 -48 21 -95 47 -104 57 -31 34 -113 49 -305
58 -162 7 -194 12 -264 36 -55 19 -130 33 -240 46 -234 26 -245 29 -300 58
-56 29 -63 46 -44 103 12 37 11 40 -16 68 -15 16 -36 53 -46 81 -20 57 -49 93
-91 115 -19 10 -28 22 -28 40 0 37 -27 82 -87 146 -41 43 -53 62 -48 76 7 25
-27 52 -65 52 -18 0 -31 9 -43 29 -22 38 -45 45 -88 27 -38 -15 -59 -12 -59
10 0 9 11 14 35 14 l34 0 -21 38 c-33 57 -48 71 -84 78 -46 8 -74 0 -119 -36
-21 -16 -44 -30 -51 -30 -7 0 -41 18 -75 40 -66 43 -106 49 -148 26 -21 -12
-30 -11 -65 5 -52 23 -80 23 -133 0 -37 -17 -42 -18 -45 -4 -3 13 -22 15 -122
14 -117 -2 -143 -8 -179 -39 -11 -10 -32 -15 -57 -13 -45 3 -70 -8 -126 -58
-23 -20 -61 -51 -84 -70 -47 -38 -69 -81 -74 -146 -3 -36 -12 -54 -49 -95 -26
-28 -55 -76 -67 -106 -11 -31 -27 -69 -36 -86 -9 -17 -26 -75 -38 -131 l-23
-100 -6 384 c-8 413 -4 461 40 589 22 65 27 101 34 260 4 102 8 210 9 241 l0
57 58 -14 c173 -42 1277 -282 1281 -278 13 12 47 4 -634 154 -154 34 -462 102
-685 151 -408 90 -442 96 -424 80z m1362 -811 c30 -19 35 -19 62 -5 46 24 79
18 147 -26 71 -47 88 -47 148 1 53 42 103 42 139 -1 31 -37 33 -49 7 -49 -26
0 -34 -15 -26 -47 5 -22 10 -25 43 -20 20 3 47 8 59 12 19 6 26 2 40 -24 10
-17 28 -34 41 -36 12 -3 34 -7 48 -10 22 -5 25 -10 19 -32 -5 -22 3 -35 59
-93 36 -37 67 -79 70 -93 3 -15 8 -38 11 -51 3 -14 16 -28 33 -35 37 -15 64
-52 85 -116 10 -27 29 -61 43 -76 25 -26 25 -29 13 -66 -7 -21 -16 -42 -20
-46 -4 -5 -4 -23 0 -40 8 -37 7 -139 -1 -153 -3 -5 -9 -38 -13 -74 -7 -65 -20
-94 -36 -85 -4 3 -17 0 -29 -7 -17 -11 -25 -10 -50 4 l-30 17 0 -52 c0 -50 -2
-55 -44 -90 -51 -42 -53 -43 -76 -22 -15 14 -21 13 -61 -10 -24 -13 -48 -25
-52 -25 -4 0 -17 20 -27 44 -29 63 -39 69 -110 61 -52 -6 -60 -5 -60 10 0 9 9
28 20 42 28 36 26 63 -4 63 -13 0 -26 -6 -29 -12 -5 -13 -6 -11 -21 35 -4 12
-14 18 -28 16 -13 -1 -45 8 -73 21 -46 21 -54 22 -123 12 -101 -16 -129 -32
-143 -85 -13 -47 0 -118 27 -148 28 -32 57 -174 45 -229 -6 -31 -11 -35 -61
-46 -117 -28 -139 -15 -158 91 -8 39 -20 81 -28 93 -14 22 -20 23 -74 17 -72
-8 -93 2 -108 53 -14 46 -55 81 -137 117 l-54 24 -3 58 c-3 56 -4 59 -40 76
-35 17 -38 22 -38 62 0 91 -49 187 -106 211 -24 10 -34 21 -34 37 0 29 9 40
44 55 27 12 28 15 23 62 -4 36 -2 52 9 60 25 21 17 69 -16 98 -17 15 -54 49
-81 77 -48 46 -51 51 -45 88 10 62 43 115 89 143 23 15 61 45 85 66 40 36 48
39 91 36 40 -2 52 1 80 25 31 26 37 27 146 27 105 0 114 -2 120 -20 7 -22 20
-26 31 -9 10 17 65 38 99 39 17 0 45 -9 63 -20z m-778 -390 c12 -17 39 -39 61
-50 48 -25 59 -60 35 -102 -14 -23 -16 -35 -7 -60 13 -36 1 -58 -30 -58 -26 0
-43 -46 -32 -84 6 -22 17 -32 39 -38 58 -15 123 -183 90 -233 -14 -22 -13 -23
20 -28 52 -9 64 -23 64 -76 0 -58 12 -74 71 -96 62 -23 116 -68 124 -105 4
-16 20 -40 36 -53 l29 -23 -171 -153 -172 -153 -12 29 c-7 15 -40 47 -73 71
-34 24 -73 58 -86 75 -31 40 -106 195 -106 218 0 9 -21 61 -46 115 -50 108
-84 224 -84 288 0 64 55 283 94 371 31 73 105 175 126 175 5 0 18 -14 30 -30z
m-2934 -299 c50 -23 87 -51 141 -107 40 -41 83 -89 96 -107 46 -61 164 -374
263 -691 27 -87 30 -175 13 -371 -5 -60 -13 -179 -18 -263 -5 -84 -12 -156
-15 -159 -4 -4 -12 -1 -18 5 -31 31 -54 8 -148 -144 -77 -123 -178 -223 -249
-249 l-41 -14 0 36 0 36 -24 -22 c-14 -13 -43 -25 -67 -28 l-43 -6 22 30 c12
17 26 42 32 57 8 23 7 26 -11 26 -32 0 -13 17 26 24 43 8 104 61 138 119 41
70 121 344 136 465 10 84 -13 563 -30 612 -7 19 -38 71 -70 115 -71 98 -98
157 -99 211 0 38 -3 43 -52 74 -65 43 -119 51 -237 36 -82 -11 -97 -15 -114
-37 -17 -24 -22 -25 -56 -16 -28 8 -49 6 -82 -4 -38 -12 -51 -24 -96 -92 -48
-71 -53 -84 -53 -133 0 -59 23 -177 45 -234 7 -19 16 -72 19 -117 10 -147 62
-320 121 -399 22 -29 23 -34 10 -70 -9 -28 -11 -53 -5 -84 14 -74 58 -184 81
-203 38 -30 125 -50 193 -42 55 6 59 5 42 -8 -19 -14 -18 -15 12 -22 39 -8 34
-20 -10 -30 l-33 -7 58 -20 c31 -11 57 -23 57 -27 0 -14 -110 -51 -151 -51
-21 0 -63 11 -92 24 l-54 23 1 -103 c1 -68 -2 -103 -9 -101 -5 2 -33 12 -62
21 -60 20 -101 61 -129 129 -10 26 -24 47 -30 47 -5 0 -17 -33 -25 -72 l-15
-73 -26 45 c-37 65 -56 132 -68 248 -13 121 -42 214 -110 356 l-49 104 -9 145
c-15 245 9 430 79 590 17 39 48 116 69 169 50 131 92 199 171 278 81 83 126
100 263 106 54 2 102 6 105 10 16 17 142 -5 207 -35z m4876 -216 c51 -14 60
-22 90 -68 49 -76 57 -98 69 -202 8 -78 6 -131 -11 -312 -15 -149 -23 -328
-27 -565 -3 -192 -8 -348 -10 -348 -3 0 -75 45 -160 101 -147 96 -263 159
-290 159 -17 0 -17 3 13 60 14 27 32 71 39 97 7 26 27 80 43 118 60 144 86
281 102 532 6 87 14 190 20 228 5 39 10 99 10 135 0 36 3 75 6 87 6 20 8 21
28 8 11 -7 47 -21 78 -30z m-2198 -94 c9 -41 36 -119 62 -175 25 -56 50 -119
56 -141 5 -22 25 -71 44 -108 22 -44 33 -76 29 -89 -12 -35 4 -66 50 -99 33
-24 45 -39 47 -62 2 -24 14 -39 45 -62 40 -28 43 -33 41 -75 -3 -56 8 -87 33
-101 23 -12 72 -4 111 19 34 20 39 15 42 -39 2 -42 3 -44 47 -54 35 -9 43 -15
41 -31 -2 -13 13 -33 45 -59 43 -36 53 -40 101 -39 l53 2 -6 -32 c-4 -17 -31
-82 -62 -144 -77 -158 -100 -249 -115 -458 -11 -164 -11 -181 12 -351 19 -140
25 -223 25 -390 0 -186 2 -213 18 -230 24 -27 22 -31 -23 -49 -38 -16 -40 -18
-40 -62 0 -67 -104 -279 -156 -318 -21 -16 -77 -65 -125 -109 -48 -44 -110
-100 -138 -124 -29 -24 -104 -108 -167 -187 -139 -173 -169 -199 -234 -199
-88 0 -161 88 -219 261 -47 141 -65 258 -65 434 -1 217 31 359 105 468 33 49
59 135 59 195 0 22 -9 99 -21 171 l-21 131 60 135 c84 188 92 236 92 537 0
222 -20 528 -35 554 -3 4 23 6 59 2 35 -3 76 -3 90 1 l26 6 0 369 c0 323 7
587 16 578 1 -1 10 -36 18 -76z m2461 58 c83 -7 147 -20 210 -41 81 -28 108
-31 271 -39 199 -8 249 -18 291 -53 15 -13 68 -40 117 -61 63 -28 129 -69 235
-148 380 -285 527 -437 505 -522 -10 -40 4 -91 39 -137 22 -29 66 -132 130
-306 97 -261 151 -440 180 -598 8 -45 31 -121 52 -170 68 -164 259 -829 321
-1115 50 -234 53 -270 21 -317 -13 -21 -41 -46 -61 -57 -20 -11 -36 -24 -36
-30 0 -5 -47 -34 -104 -63 l-104 -54 -155 4 -155 3 -6 64 c-4 35 -3 67 2 70
16 11 34 126 39 261 7 173 -10 398 -47 620 -61 368 -95 675 -110 1002 -6 120
-17 255 -26 300 -17 90 -70 267 -85 283 -16 16 -10 -19 16 -96 46 -133 65
-259 75 -478 14 -323 53 -676 115 -1042 44 -256 58 -556 34 -726 -12 -92 -24
-110 -33 -53 -10 60 -50 133 -93 169 -59 48 -74 36 -17 -14 32 -27 59 -62 72
-92 23 -54 58 -307 48 -347 -3 -14 -18 -31 -34 -38 -32 -16 -40 -50 -18 -83
14 -21 14 -29 0 -77 -22 -73 -59 -134 -95 -155 -17 -10 -40 -35 -50 -55 -26
-51 -52 -65 -134 -73 -61 -6 -79 -3 -139 19 l-69 26 -221 -45 c-253 -51 -350
-65 -445 -65 -59 0 -70 -3 -91 -25 -19 -21 -33 -25 -76 -25 -76 0 -175 -23
-340 -80 -81 -27 -150 -47 -155 -44 -5 3 -42 55 -83 117 -85 127 -150 259
-195 393 -30 93 -78 301 -70 308 2 2 78 21 169 42 131 30 190 38 287 41 102 2
131 7 175 26 29 13 79 27 111 30 83 10 141 35 282 123 135 84 131 79 119 165
-6 40 -12 49 -79 99 -73 56 -147 152 -175 230 -9 24 -15 120 -18 314 l-4 279
52 -6 c28 -3 74 -2 101 3 64 12 223 86 214 100 -3 6 -37 -6 -83 -30 -91 -46
-161 -64 -219 -55 -48 7 -49 9 -59 110 -6 58 -13 78 -40 114 -19 24 -39 62
-44 85 -28 113 -98 256 -147 302 -24 22 -26 32 -30 136 l-5 113 67 205 c36
113 68 211 71 218 2 8 -1 12 -7 10 -6 -2 -42 -100 -81 -218 l-70 -215 6 -118
5 -117 36 -34 c41 -39 106 -173 130 -268 12 -44 28 -80 50 -105 27 -32 34 -50
42 -118 6 -50 6 -90 1 -107 -6 -16 -8 -141 -6 -290 5 -299 9 -318 82 -428 29
-44 69 -86 114 -121 71 -55 82 -73 82 -138 0 -24 -14 -36 -100 -89 -143 -89
-193 -113 -269 -124 -36 -6 -93 -21 -127 -35 -50 -19 -82 -24 -180 -27 -65 -2
-150 -11 -189 -19 -38 -9 -119 -28 -180 -42 -98 -22 -132 -25 -314 -25 l-204
0 72 52 c81 59 83 54 -34 78 -44 9 -68 21 -92 45 -37 37 -41 64 -19 122 8 21
17 87 20 147 4 94 8 114 31 147 30 47 31 49 3 49 -12 0 -39 19 -65 45 -23 25
-45 45 -48 45 -10 0 -4 -26 22 -92 l26 -68 -50 -102 c-28 -57 -85 -157 -126
-223 -41 -66 -74 -122 -72 -124 9 -8 27 16 92 121 94 152 107 176 143 259 32
72 32 74 5 142 -7 16 -4 16 27 -3 l35 -20 -19 -38 c-12 -26 -21 -76 -27 -153
-5 -63 -15 -133 -22 -156 -24 -79 28 -141 139 -164 50 -10 53 -12 38 -28 -9
-10 -39 -30 -67 -45 -39 -22 -66 -29 -126 -31 -88 -4 -82 -7 -273 138 -119 91
-143 103 -247 123 -94 18 -177 18 -234 1 -36 -11 -51 -11 -79 -1 -19 7 -47 13
-61 13 -30 1 -119 -28 -119 -38 0 -4 -24 -6 -54 -3 -30 2 -70 0 -88 -6 l-33
-11 30 22 c17 12 62 54 100 93 39 39 89 83 112 98 51 34 78 74 137 203 31 67
46 114 46 141 0 34 4 42 23 47 12 4 32 13 45 21 l22 15 -22 30 c-22 29 -23 39
-24 242 -1 160 -6 249 -22 361 -25 166 -27 246 -11 421 14 163 40 260 104 388
30 59 60 128 66 154 l12 46 78 -6 c43 -4 107 -12 143 -18 l64 -12 -5 -71 c-3
-54 1 -92 19 -160 34 -132 44 -127 63 31 l7 52 46 -33 c26 -19 65 -43 87 -54
51 -25 219 -92 232 -92 6 0 16 -62 23 -142 16 -179 37 -264 96 -386 26 -53 66
-154 90 -224 38 -115 43 -140 49 -260 6 -105 4 -147 -8 -198 -9 -36 -19 -99
-22 -140 -4 -41 -16 -120 -26 -175 -11 -55 -22 -145 -26 -201 -7 -120 1 -142
80 -225 46 -48 63 -58 120 -74 78 -21 160 -17 185 10 16 17 16 17 -8 10 -60
-18 -135 -17 -191 4 -44 17 -68 35 -110 83 l-54 62 -3 82 c-3 54 3 118 17 190
11 60 25 150 31 199 6 50 18 128 26 173 12 65 14 113 9 210 -7 115 -12 140
-56 268 -26 77 -66 176 -87 220 -22 43 -47 104 -56 134 -19 63 -56 391 -56
493 l0 69 33 -3 c52 -4 124 45 156 109 24 46 90 19 327 -135 132 -85 177 -113
187 -113 2 0 7 168 10 373 4 265 11 430 26 575 29 285 17 400 -55 513 -30 49
-30 52 4 45 15 -3 81 -10 147 -17z m-5173 -112 c39 -26 48 -37 48 -62 0 -57
21 -104 86 -195 88 -123 95 -143 102 -285 7 -183 -20 -310 -88 -413 -37 -56
-48 -64 -136 -106 -82 -40 -104 -46 -158 -46 -110 0 -254 87 -308 186 -35 64
-77 235 -84 337 -3 45 -13 99 -21 119 -15 36 -15 38 8 58 27 22 77 20 157 -7
44 -14 84 -11 66 7 -13 13 -126 40 -166 40 -22 0 -42 -7 -53 -20 -10 -11 -21
-20 -25 -20 -10 0 -30 119 -30 177 0 42 7 59 48 118 57 84 98 105 165 88 40
-11 43 -10 67 17 21 24 37 31 95 39 109 15 172 6 227 -32z m4031 -31 c18 -7
51 -34 74 -60 34 -39 41 -55 47 -103 3 -32 2 -72 -3 -89 -12 -44 -40 -94 -51
-94 -6 0 -20 -11 -32 -25 -12 -14 -28 -25 -35 -25 -8 0 -11 -4 -8 -10 10 -16
22 -12 57 20 18 17 35 30 39 30 11 0 48 86 55 128 6 40 7 40 61 47 62 8 72 2
98 -54 9 -22 24 -42 32 -45 16 -7 77 17 87 33 5 8 14 7 29 -4 36 -25 41 -22
128 58 11 10 19 30 19 50 0 31 2 34 33 34 34 0 70 8 87 18 7 4 9 -26 5 -92
-16 -265 -40 -427 -74 -493 -65 -127 -160 -300 -180 -330 -28 -41 -82 -100
-91 -100 -4 0 -12 26 -19 58 -7 31 -14 64 -17 73 -3 9 -31 27 -64 39 -49 18
-74 21 -132 18 -72 -5 -73 -6 -118 -56 -42 -47 -49 -51 -108 -60 -46 -7 -83
-5 -140 6 -42 8 -138 15 -212 17 -74 1 -138 3 -141 4 -3 0 -23 16 -44 35 -32
29 -36 37 -26 49 14 18 10 21 -46 36 -35 10 -42 16 -48 44 -16 78 -17 79 -86
47 -57 -25 -75 -25 -93 3 -21 31 -11 101 13 92 35 -14 111 -18 111 -6 0 6 -15
11 -34 11 -38 0 -96 18 -96 30 0 11 386 353 408 362 9 4 29 7 44 7 30 1 39
-18 57 -123 13 -70 22 -83 66 -92 40 -7 165 19 176 38 26 41 -3 234 -43 289
-30 40 -36 117 -11 148 33 41 165 63 226 37z m97 -41 c0 -8 -2 -15 -4 -15 -2
0 -6 7 -10 15 -3 8 -1 15 4 15 6 0 10 -7 10 -15z m60 -55 c-6 -12 -14 -19 -17
-17 -2 3 1 15 7 27 6 12 14 19 17 17 2 -3 -1 -15 -7 -27z m-3002 -354 c64 -33
66 -39 57 -218 -9 -195 -7 -250 7 -259 17 -11 152 -29 212 -29 l54 0 32 -67
c50 -107 71 -163 85 -232 12 -54 12 -67 0 -85 -8 -11 -36 -73 -63 -136 -67
-157 -113 -245 -161 -310 -117 -158 -162 -237 -207 -365 -20 -59 -41 -96 -79
-140 -96 -111 -206 -257 -232 -309 -62 -124 -172 -286 -465 -689 -139 -190
-217 -363 -263 -577 -30 -142 -63 -232 -104 -280 l-28 -34 -103 12 c-163 19
-221 54 -278 168 -13 25 -30 44 -44 48 -13 3 -36 21 -51 41 l-28 36 94 147 94
147 61 -3 c75 -5 149 18 184 56 25 28 78 163 78 201 0 36 -30 71 -81 93 -27
11 -49 24 -49 28 0 4 12 39 26 76 14 38 57 157 94 264 37 107 81 233 98 280
27 79 147 308 177 338 10 11 14 8 23 -17 9 -26 26 -39 94 -72 132 -64 173 -49
246 90 27 51 36 83 33 118 -2 22 -49 44 -142 68 -50 13 -93 25 -95 28 -8 7
151 148 245 219 108 81 136 132 189 346 30 123 40 151 52 146 27 -12 144 -24
171 -19 54 12 61 31 62 179 2 169 3 168 -122 174 -66 3 -97 0 -119 -11 l-30
-15 -17 94 c-9 52 -15 98 -13 104 1 5 37 34 78 63 95 67 115 97 124 183 13
124 39 154 104 120z m1811 -61 c35 -25 28 -34 -12 -14 -38 20 -67 52 -67 73 0
19 2 19 23 -6 12 -16 37 -39 56 -53z m83 -62 c19 -17 25 -68 9 -77 -16 -10
-71 44 -71 70 0 29 33 33 62 7z m-2828 -358 c-7 -86 -23 -156 -70 -310 -67
-221 -117 -285 -240 -302 l-47 -6 32 -29 c36 -32 36 -32 -23 -95 l-30 -33 55
0 c29 0 66 7 82 14 30 16 34 10 12 -20 -25 -32 -18 -33 60 -4 51 19 92 43 123
72 l47 43 3 -33 c2 -18 -10 -82 -27 -141 -17 -59 -31 -115 -31 -124 0 -24 -41
-32 -160 -31 -114 0 -204 20 -340 72 -68 27 -75 32 -81 62 -4 18 -4 52 0 77
l6 44 47 -25 c25 -13 48 -22 51 -20 2 3 -4 21 -14 42 -20 39 -27 172 -9 172 5
0 28 -7 50 -16 56 -22 118 -14 209 26 l73 34 -52 20 c-57 21 -54 26 28 47 28
7 52 16 52 21 0 10 -18 10 -57 -1 -32 -9 -73 -5 -73 8 0 4 14 12 30 18 49 18
38 37 -17 29 -128 -18 -170 -18 -220 -2 -28 9 -58 25 -67 34 -27 30 -77 199
-71 236 11 56 19 62 53 37 71 -50 155 -81 221 -81 54 0 76 6 155 44 124 59
183 131 218 262 l12 49 8 -60 c4 -33 5 -91 2 -130z m2182 164 c37 -10 45 -16
52 -43 l8 -31 -60 -6 c-67 -6 -111 -23 -122 -48 -10 -22 -18 -303 -10 -346 8
-39 40 -55 75 -35 20 10 21 9 21 -62 0 -40 -7 -143 -16 -228 -8 -85 -17 -225
-19 -311 -3 -165 -6 -175 -57 -242 -17 -21 -32 -55 -35 -78 -3 -22 -8 -38 -12
-36 -31 17 -83 35 -114 40 -35 5 -40 3 -67 -34 -33 -46 -54 -106 -70 -199 -6
-36 -22 -82 -35 -102 -91 -138 -97 -349 -19 -620 l34 -117 -41 -158 c-23 -87
-50 -180 -61 -207 -51 -132 -91 -370 -107 -649 -6 -109 -12 -152 -23 -163 -13
-14 -16 -1 -22 113 -8 147 -53 805 -60 876 -4 34 -2 47 8 47 23 0 36 49 36
130 0 73 -2 81 -24 95 l-25 16 6 219 c5 194 4 222 -11 244 -9 14 -24 26 -33
26 -13 0 -14 8 -7 63 18 140 7 161 -92 172 -35 3 -64 9 -64 11 0 9 101 371
120 429 11 33 38 163 61 290 l42 230 -17 110 c-22 136 -49 231 -88 308 -56
111 -58 103 30 116 135 20 495 98 554 120 31 12 71 32 90 46 38 27 102 32 174
14z m-1568 -116 c6 -26 9 -50 6 -52 -2 -2 -15 1 -29 7 -27 13 -35 58 -13 80
20 20 26 14 36 -35z m3737 -15 c-16 -56 -39 -102 -72 -145 -13 -18 -21 -33
-18 -33 3 0 -2 -14 -10 -31 -20 -38 -98 -89 -126 -82 -18 5 -14 11 30 50 58
51 124 139 171 231 18 35 34 61 36 59 2 -1 -3 -24 -11 -49z m-2111 5 c10 -48
26 -215 26 -279 0 -69 -6 -74 -82 -74 -20 0 -49 -5 -64 -10 -46 -18 -52 -3
-53 140 -2 176 4 207 43 231 19 11 50 19 78 19 43 0 47 -2 52 -27z m1810 -62
l50 -18 18 -79 19 -79 -33 -28 c-32 -27 -33 -30 -36 -117 -2 -50 -6 -90 -8
-90 -2 0 -55 21 -119 46 -107 43 -220 109 -238 140 -16 28 -33 15 -29 -23 1
-21 -1 -58 -6 -83 l-9 -45 -12 40 c-18 59 -26 188 -13 212 8 15 25 22 62 26
28 3 64 12 79 20 17 9 36 11 49 6 19 -7 22 -16 22 -60 0 -30 -7 -63 -17 -80
-32 -54 14 -101 145 -150 71 -27 98 -30 76 -10 -5 5 -39 18 -76 30 -106 35
-153 82 -123 123 9 14 15 44 15 79 0 50 -3 60 -26 78 -22 17 -23 22 -12 40 6
11 21 24 33 30 34 16 136 12 189 -8z m-3151 -70 c8 -8 11 -52 10 -139 -2 -116
-4 -128 -24 -145 -18 -14 -33 -16 -88 -11 -84 9 -98 16 -111 62 -11 42 -13
211 -2 229 4 6 21 13 37 16 50 8 166 0 178 -12z m-240 -201 c7 -54 -4 -137
-27 -209 -8 -25 -20 -71 -26 -102 -15 -79 -70 -189 -112 -224 -19 -17 -63 -50
-97 -74 -34 -24 -108 -92 -165 -151 -174 -181 -320 -423 -407 -680 -29 -85
-56 -159 -61 -165 -22 -23 10 198 43 304 67 213 191 389 494 701 134 138 154
164 187 235 20 44 46 125 57 180 12 55 26 117 31 137 10 36 54 98 69 98 5 0
11 -22 14 -50z m1611 -77 c9 -73 -2 -289 -20 -373 -9 -41 -35 -118 -59 -170
-23 -52 -46 -104 -51 -115 -17 -40 -16 89 5 340 12 138 22 273 24 300 l2 50
40 6 c22 3 43 7 46 8 4 0 9 -20 13 -46z m-858 -140 c3 -43 -5 -113 -34 -269
l-39 -211 -41 -37 c-77 -70 -117 -99 -177 -127 -33 -16 -64 -29 -70 -29 -5 0
-27 -16 -48 -36 -21 -20 -40 -34 -42 -32 -7 6 60 159 95 218 18 30 59 91 92
134 60 80 118 189 199 373 48 110 56 112 65 16z m-1899 -459 c128 -42 264 -60
356 -47 l67 9 0 -27 c0 -15 -9 -56 -20 -92 -27 -88 -94 -162 -193 -213 l-72
-37 -52 32 c-94 58 -164 162 -202 301 -27 95 -27 125 -3 115 9 -3 63 -22 119
-41z m1759 -251 c-29 -100 -54 -185 -57 -188 -3 -3 -11 14 -18 37 -15 49 -39
101 -70 151 l-22 35 43 22 c24 12 72 45 108 74 36 30 66 53 66 52 1 0 -22 -83
-50 -183z m-868 38 c32 -17 28 -52 -14 -132 -64 -122 -102 -133 -226 -64 -58
31 -68 41 -74 70 -5 30 0 41 55 108 l61 75 87 -22 c49 -13 98 -28 111 -35z
m1735 -63 c27 -181 22 -230 -40 -329 -103 -168 -137 -451 -88 -732 44 -247
140 -427 246 -459 62 -18 112 2 183 76 l59 61 -37 -69 c-21 -38 -56 -92 -77
-119 -22 -27 -65 -93 -96 -146 -31 -53 -63 -107 -71 -120 l-15 -25 -29 35
c-105 122 -284 432 -374 642 l-42 100 15 51 c8 28 34 112 58 186 24 74 51 173
60 220 9 47 31 135 50 195 51 169 54 181 80 323 21 116 27 137 54 168 17 19
31 39 31 44 0 6 4 10 8 10 5 0 16 -51 25 -112z m-1015 -9 c34 -56 74 -173 74
-212 -1 -12 -12 -80 -26 -152 -14 -71 -28 -155 -32 -186 -8 -74 -15 -85 -43
-68 -18 12 -21 23 -21 74 0 33 -4 74 -9 90 -4 17 -4 62 2 105 7 58 6 110 -8
234 -15 134 -15 160 -4 167 22 14 32 6 67 -52z m-77 -169 c8 -83 9 -145 3
-185 -5 -33 -7 -73 -3 -90 4 -16 7 -55 7 -85 l1 -55 -44 48 c-25 27 -53 73
-66 105 -27 73 -36 203 -19 301 11 64 18 80 54 119 l41 45 7 -39 c3 -22 12
-95 19 -164z m904 126 c22 -10 37 -24 41 -40 7 -30 -22 -174 -61 -299 -31 -99
-32 -100 -114 -62 l-54 25 6 98 c9 127 36 225 79 280 14 16 61 15 103 -2z
m-1046 -88 c-4 -24 -8 -73 -9 -109 0 -136 35 -239 113 -327 35 -39 47 -62 53
-98 8 -56 -2 -240 -18 -304 -6 -25 -11 -74 -12 -110 -2 -76 -40 -180 -66 -180
-14 0 -16 9 -12 58 5 79 -26 137 -92 171 -41 21 -62 25 -145 25 -127 0 -173
-22 -228 -110 -10 -17 -13 -15 -32 26 -23 50 -27 113 -10 157 6 15 12 66 13
113 3 84 3 86 53 160 27 41 82 130 122 198 39 68 97 156 128 195 64 81 144
177 148 177 1 0 -1 -19 -6 -42z m-1577 -130 c6 -28 3 -37 -17 -55 -20 -18
-113 -53 -140 -53 -12 0 4 79 26 130 l20 47 52 -18 c45 -15 53 -22 59 -51z
m2018 -28 c25 -25 25 -23 -1 -189 -26 -165 -33 -176 -106 -167 -98 11 -93 -4
-62 196 15 96 28 176 28 178 1 1 28 2 61 2 47 0 64 -4 80 -20z m397 -101 l-5
-41 61 -29 c34 -16 70 -29 80 -29 20 0 19 -10 -9 -140 -18 -83 -117 -400 -125
-400 -8 0 -56 180 -68 260 -14 83 -14 192 -1 260 10 55 54 160 66 160 4 0 4
-18 1 -41z m-349 -131 c8 -8 12 -63 12 -182 0 -222 -6 -269 -34 -282 -17 -7
-22 -19 -24 -67 -3 -67 21 -162 43 -171 11 -4 15 -20 15 -54 0 -27 11 -201 25
-387 14 -186 28 -406 31 -489 l7 -151 -37 -33 c-38 -33 -90 -59 -138 -69 -23
-5 -28 -2 -28 15 0 11 11 27 25 36 25 16 26 20 23 109 -2 74 -6 92 -18 92 -12
0 -14 9 -10 40 3 22 5 76 4 120 0 66 -6 94 -33 160 -18 44 -38 87 -45 95 -8 8
-16 44 -20 80 -6 61 -9 68 -54 111 -27 25 -54 48 -62 51 -12 4 -11 27 3 149
10 79 24 236 33 349 16 217 29 339 37 346 3 3 33 0 66 -6 34 -6 71 -8 82 -5
25 8 45 48 54 108 7 47 20 58 43 35z m-271 -133 c2 -1 -2 -37 -7 -81 -5 -43
-19 -191 -30 -329 -11 -137 -35 -365 -54 -505 -19 -140 -39 -300 -46 -356 -7
-55 -15 -106 -19 -112 -4 -7 -128 -29 -287 -52 -153 -22 -292 -42 -307 -45
-28 -5 -28 -4 -22 28 17 81 80 164 289 387 127 135 155 174 248 347 41 77 53
92 76 95 42 5 85 100 87 193 1 38 8 93 14 120 7 28 13 114 14 191 2 138 2 142
22 132 11 -6 21 -12 22 -13z m-686 -217 c-25 -143 -25 -156 4 -229 l28 -68
-99 -207 c-77 -162 -110 -220 -149 -263 -62 -67 -129 -111 -170 -111 -18 0
-54 -7 -81 -15 -27 -8 -52 -15 -55 -15 -4 0 -2 21 2 48 33 174 106 366 191
499 99 153 323 451 332 442 6 -5 5 -37 -3 -81z m997 -140 c12 -12 17 -143 6
-172 -3 -9 -16 -16 -29 -16 -18 0 -25 8 -34 44 -12 49 -15 139 -4 149 11 11
48 8 61 -5z m-576 -40 c23 -13 49 -39 60 -58 31 -60 24 -111 -32 -223 -84
-165 -130 -236 -215 -326 -283 -301 -313 -343 -345 -471 -12 -50 -26 -93 -31
-95 -11 -7 -39 48 -39 76 0 13 -17 38 -40 60 -22 21 -40 43 -40 48 0 6 -10 17
-22 25 -30 18 -78 29 -78 17 0 -5 13 -12 30 -16 30 -7 63 -41 54 -57 -3 -4 2
-8 11 -8 26 0 62 -47 69 -89 4 -25 15 -47 30 -59 l25 -19 -21 -34 c-11 -19
-35 -50 -52 -70 -17 -20 -57 -71 -89 -113 -57 -76 -58 -76 -82 -60 -28 18 -33
9 -10 -16 13 -15 11 -20 -22 -51 -23 -22 -34 -27 -29 -16 4 13 -1 25 -16 37
l-23 19 47 48 c83 86 179 208 166 212 -6 2 -63 -51 -126 -118 -74 -78 -132
-131 -161 -146 l-46 -23 -32 28 -31 28 27 5 c29 7 365 337 342 337 -7 0 -82
-70 -165 -155 -141 -145 -155 -157 -205 -170 -55 -14 -76 -11 -100 19 -11 12
-6 18 27 35 51 26 260 217 306 280 34 46 71 139 61 150 -6 6 -5 7 -49 -62
l-37 -59 -24 26 c-13 14 -33 26 -45 26 -19 0 -18 4 15 47 63 83 59 126 -14
131 -22 2 -41 5 -41 7 0 2 9 24 20 50 23 54 56 72 155 84 52 6 73 14 118 49
30 22 71 61 91 85 30 37 192 357 258 509 21 50 63 84 122 99 56 15 184 2 228
-23z m-1142 -17 c14 -10 32 -30 40 -44 14 -24 13 -33 -14 -109 -16 -46 -38
-93 -49 -105 -30 -34 -108 -56 -167 -48 -28 4 -50 9 -50 11 0 2 36 77 81 165
78 157 81 161 107 154 15 -3 38 -14 52 -24z m3383 -40 c104 -36 187 -72 187
-80 0 -4 -6 -19 -12 -34 -21 -44 -77 -46 -285 -10 -128 21 -173 6 -173 -59 0
-40 30 -80 89 -119 48 -30 49 -31 30 -50 -10 -10 -19 -30 -19 -44 0 -36 -11
-31 -51 23 -81 109 -83 116 -70 193 7 38 19 72 26 77 7 4 31 30 53 58 37 47
76 70 125 73 9 1 54 -12 100 -28z m346 0 c45 -16 97 -48 185 -114 197 -150
144 -135 491 -137 164 0 300 -2 301 -3 2 -1 12 -49 24 -106 27 -135 81 -293
136 -404 25 -49 43 -92 39 -95 -3 -3 -76 4 -163 16 -86 13 -251 30 -365 38
-208 16 -209 16 -259 -6 -41 -18 -73 -22 -186 -24 -76 -2 -202 -7 -282 -11
-144 -7 -146 -7 -240 24 -107 34 -140 54 -140 81 0 19 1 19 43 0 44 -20 76
-24 115 -14 38 10 24 25 -17 18 -79 -13 -190 49 -221 122 -27 62 -26 110 1
125 19 10 26 7 55 -25 18 -19 58 -47 90 -61 64 -28 64 -28 64 -16 0 5 -29 23
-65 39 -100 47 -134 127 -81 188 23 27 24 28 50 11 19 -13 26 -14 26 -5 0 7
-42 37 -94 67 -89 51 -116 79 -116 116 0 37 70 44 215 20 50 -8 117 -15 151
-15 59 0 62 1 93 40 18 22 31 48 29 57 -2 12 -31 27 -83 46 -44 16 -87 31 -95
34 -36 13 31 23 130 19 73 -3 124 -10 169 -25z m-1649 -106 c80 -189 235 -455
352 -602 27 -35 48 -63 46 -64 -26 -8 -634 -105 -637 -103 -3 3 1 57 8 122 14
137 53 320 88 412 13 36 37 117 53 180 38 147 42 161 45 158 1 -2 21 -48 45
-103z m1048 88 c-10 -2 -18 -8 -18 -12 0 -5 -22 -11 -49 -15 -118 -16 -182
-104 -248 -341 -48 -176 -86 -281 -134 -377 -27 -54 -53 -98 -57 -98 -10 0
-91 68 -108 89 -13 17 32 103 123 236 30 44 69 101 86 127 18 25 57 92 87 149
92 173 181 250 285 248 28 -1 42 -3 33 -6z m-89 -63 c-47 -25 -109 -95 -145
-164 -16 -30 -30 -53 -32 -52 -1 2 7 28 18 59 33 89 123 176 180 176 8 0 -1
-9 -21 -19z m27 -52 c-4 -13 -9 -38 -13 -56 -5 -29 -7 -31 -19 -15 -16 22 -17
34 -4 67 12 33 45 36 36 4z m-64 -27 c-3 -20 3 -40 18 -61 l23 -32 -28 -136
c-62 -315 -132 -468 -227 -501 l-31 -11 6 112 c10 175 59 363 132 508 28 56
94 150 105 150 4 0 5 -13 2 -29z m116 -206 c29 -42 62 -79 73 -83 18 -7 18 -9
-11 -30 -23 -17 -30 -31 -30 -55 0 -51 34 -127 68 -154 19 -14 32 -34 32 -46
0 -13 7 -32 14 -43 14 -19 12 -24 -22 -56 -58 -56 -155 -113 -245 -146 -95
-34 -234 -68 -243 -60 -3 4 -3 31 1 61 7 53 9 56 54 79 93 48 162 196 218 471
15 75 30 137 33 137 3 0 30 -34 58 -75z m-1711 -87 c42 -43 43 -44 43 -113 0
-67 -22 -151 -47 -176 -7 -7 -24 -6 -57 2 -35 9 -45 15 -42 28 2 9 12 80 22
159 10 78 23 142 28 142 5 0 29 -19 53 -42z m-1839 -174 c19 -19 48 -42 64
-50 15 -8 28 -20 28 -27 0 -23 66 -107 103 -133 46 -31 120 -50 229 -59 l87
-7 28 40 c25 37 32 41 70 42 89 0 71 -41 -92 -210 -141 -144 -156 -171 -111
-191 34 -16 66 -5 123 39 26 21 73 55 103 76 45 31 35 18 -60 -74 -82 -80
-134 -121 -182 -146 -37 -19 -75 -45 -83 -58 l-16 -25 -46 20 c-25 11 -67 19
-97 19 -177 0 -497 161 -547 276 -14 30 -18 55 -14 75 4 19 68 101 167 217
161 188 184 212 201 212 5 0 25 -16 45 -36z m1972 -155 c19 -53 21 -78 17
-149 -6 -99 -13 -120 -37 -120 -20 0 -30 -36 -30 -109 0 -60 9 -91 26 -91 9 0
14 -11 14 -30 0 -25 -4 -30 -24 -30 -61 0 -92 15 -149 72 -54 53 -63 58 -103
58 -24 0 -44 2 -44 4 0 2 7 23 16 47 20 56 63 273 64 319 1 54 9 61 54 49 59
-16 80 -2 107 72 l23 61 22 -44 c12 -25 32 -73 44 -109z m1203 -7 c-4 -77 -10
-112 -18 -112 -18 0 -75 21 -75 28 0 9 93 202 96 199 2 -1 0 -53 -3 -115z
m-154 -74 c15 -10 21 -23 18 -32 -10 -26 -22 -19 -76 40 -57 63 -59 93 -3 42
21 -18 48 -41 61 -50z m-179 51 c-8 -5 -37 -21 -65 -36 -27 -14 -65 -38 -85
-53 -19 -15 -48 -31 -65 -34 -92 -21 -152 -52 -207 -107 -31 -31 -60 -68 -64
-83 -14 -56 -53 -21 -77 70 -18 63 -22 132 -9 149 4 6 131 30 282 54 151 24
277 45 279 47 2 2 9 4 15 4 6 0 4 -5 -4 -11z m113 -64 l58 -65 -52 -55 c-34
-36 -74 -65 -118 -86 -76 -36 -113 -67 -148 -126 -16 -27 -32 -43 -44 -43 -43
0 -76 -28 -102 -88 -27 -64 -86 -122 -123 -122 -25 0 -34 17 -34 64 0 37 75
198 126 269 36 50 39 57 25 57 -4 0 -21 -18 -37 -41 -33 -47 -63 -62 -110 -53
l-33 6 19 38 c31 62 108 122 186 148 38 12 75 22 82 22 8 0 32 15 55 34 35 28
169 104 187 106 3 0 31 -29 63 -65z m175 -36 c36 -10 42 -15 41 -38 -1 -14 -4
-36 -7 -49 -7 -23 -8 -23 -61 17 -29 22 -56 42 -58 45 -9 9 19 47 30 42 7 -3
31 -10 55 -17z m-53 -74 c25 -19 53 -38 62 -43 14 -8 14 -13 -2 -46 -29 -61
-89 -104 -185 -132 -47 -13 -105 -32 -130 -42 -35 -14 -53 -15 -82 -8 -21 5
-38 15 -38 21 0 29 85 107 147 135 45 20 82 48 121 89 31 33 58 60 59 60 2 1
23 -15 48 -34z m-2433 -22 c5 -2 12 -13 18 -23 9 -17 -1 -28 -75 -84 l-86 -64
-29 16 c-17 9 -30 20 -30 24 0 5 33 39 73 77 60 58 76 69 97 64 14 -3 28 -8
32 -10z m2535 -86 c-9 -14 -38 -52 -66 -85 -68 -81 -113 -102 -221 -102 -49 0
-80 4 -74 9 5 5 55 22 112 39 124 36 174 67 215 133 20 32 34 46 40 40 7 -7 4
-18 -6 -34z m-1164 5 c3 -16 3 -54 0 -85 -4 -44 -10 -56 -25 -60 -40 -11 -48
2 -48 72 0 83 4 89 61 100 4 0 9 -12 12 -27z m262 -24 c12 -40 60 -66 128 -70
27 -2 45 -7 43 -13 -3 -5 -21 -46 -40 -90 -39 -88 -46 -148 -19 -177 19 -22
44 -23 81 -4 39 20 63 50 97 119 22 45 38 65 57 71 15 6 30 7 33 5 10 -11 -49
-164 -72 -185 -39 -36 -116 -57 -184 -51 -114 10 -171 74 -190 215 -11 79 -10
81 15 119 14 21 26 50 26 65 0 38 14 35 25 -4z m-671 -34 c3 -9 6 -24 6 -35 0
-16 7 -19 55 -19 53 0 56 -2 107 -54 53 -54 99 -76 161 -76 l27 0 -2 -112 c-1
-103 1 -118 23 -163 68 -135 227 -151 445 -44 114 56 188 125 229 213 33 72
57 104 99 131 22 14 31 12 132 -27 l109 -43 -32 -48 c-46 -68 -55 -105 -60
-252 -3 -75 -10 -136 -17 -144 -9 -12 -86 -13 -499 -8 -268 3 -527 2 -575 -3
-212 -21 -207 -21 -243 3 -19 13 -49 47 -67 77 -31 50 -33 60 -28 113 3 32 11
68 18 80 6 12 11 40 9 62 -1 22 9 84 24 138 14 53 25 119 25 146 0 62 7 81 30
81 10 0 21 -7 24 -16z m-1144 -35 c0 -5 -9 -9 -20 -9 -19 0 -26 11 -14 23 8 8
34 -3 34 -14z m1732 -116 c14 -195 182 -287 360 -200 59 29 69 44 106 157 16
46 23 55 45 58 34 4 34 -8 1 -39 -15 -13 -44 -62 -66 -107 -46 -96 -98 -143
-221 -205 -201 -99 -356 -87 -417 33 -24 49 -31 102 -22 194 l7 78 65 24 c35
14 78 36 95 49 16 13 33 24 36 25 4 0 8 -30 11 -67z m-1098 -12 c22 -10 52
-30 65 -44 21 -23 23 -32 17 -78 -17 -123 -59 -148 -251 -149 -97 0 -145 4
-187 17 -63 20 -71 28 -34 37 27 7 129 113 187 197 l40 56 60 -9 c34 -4 80
-16 103 -27z m-726 -103 c-16 -10 -20 -10 -37 1 -12 8 -13 12 -1 25 12 15 14
15 32 -1 14 -13 16 -18 6 -25z m101 -11 c-2 -1 -12 -9 -22 -16 -15 -12 -17
-12 -11 3 3 9 13 16 22 16 8 0 13 -1 11 -3z m-59 -15 c0 -15 -11 -21 -27 -15
-12 5 -12 7 -1 14 17 11 28 11 28 1z m96 -13 c8 -14 -14 -29 -45 -29 -23 0
-24 1 -6 20 20 22 40 26 51 9z m116 -11 c-5 -7 -12 -22 -14 -34 -3 -18 -7 -19
-37 -12 l-34 9 39 24 c43 27 62 32 46 13z m60 -23 c0 -14 -29 -31 -38 -22 -9
8 16 39 28 35 5 -2 10 -8 10 -13z m2298 -820 c0 -8 -20 -18 -52 -24 -29 -6
-280 -55 -558 -110 -278 -55 -904 -179 -1391 -276 -705 -139 -903 -175 -967
-175 -45 0 -83 3 -86 8 -2 4 363 79 812 166 450 87 977 190 1172 228 195 38
436 85 535 104 99 19 257 50 350 68 94 18 173 31 178 29 4 -2 7 -10 7 -18z"/>
<path d="M7050 5724 c-14 -3 -91 -18 -171 -34 -81 -17 -150 -30 -155 -30 -4 0
-4 -4 2 -10 6 -6 43 -2 104 11 216 46 262 51 380 46 106 -5 123 -9 228 -50
194 -78 244 -120 312 -264 42 -91 82 -143 109 -143 10 0 2 13 -21 38 -21 20
-55 77 -78 125 -63 138 -134 194 -342 273 -84 32 -105 35 -218 39 -69 2 -136
2 -150 -1z"/>
<path d="M6406 4124 c-42 -103 -285 -304 -368 -304 -51 0 -70 21 -62 71 7 41
1 48 -22 25 -21 -21 -19 -126 5 -246 13 -62 25 -180 31 -290 13 -243 30 -308
108 -412 24 -32 49 -52 80 -64 88 -33 110 -34 230 -8 64 13 117 26 120 29 14
14 -14 12 -122 -11 l-119 -25 -69 22 c-62 19 -74 28 -108 73 -20 28 -43 61
-49 73 -26 52 -42 150 -51 318 -6 117 -18 225 -34 309 -14 71 -23 132 -21 137
3 4 19 0 36 -8 20 -10 44 -13 67 -10 44 8 178 96 259 170 70 65 147 197 116
197 -5 0 -17 -21 -27 -46z"/>
<path d="M938 5954 c-75 -17 -136 -70 -111 -95 8 -8 18 -3 40 21 45 51 78 63
167 61 49 0 76 3 71 8 -15 14 -112 17 -167 5z"/>
<path d="M1050 5853 c0 -36 -4 -45 -28 -57 -28 -14 -56 -12 -119 8 -36 11 -27
-11 8 -23 55 -19 113 -14 137 12 23 25 28 62 12 87 -7 11 -10 4 -10 -27z"/>
<path d="M717 5813 c-4 -3 -1 -15 5 -26 6 -13 8 -49 5 -94 -6 -84 8 -100 18
-19 10 79 -7 161 -28 139z"/>
<path d="M476 5778 c22 -75 120 -88 173 -24 20 24 -5 21 -36 -4 -14 -11 -34
-20 -44 -20 -32 0 -67 22 -73 46 -4 13 -11 24 -17 24 -6 0 -8 -9 -3 -22z"/>
<path d="M910 5561 c0 -12 -9 -21 -25 -25 -14 -4 -34 -15 -45 -26 -24 -24 -41
-25 -81 -4 -17 8 -36 13 -42 11 -7 -2 9 -15 35 -28 46 -22 49 -22 83 -6 19 9
35 21 35 27 0 5 8 10 18 10 10 0 23 5 30 12 15 15 16 48 2 48 -5 0 -10 -9 -10
-19z"/>
<path d="M840 5401 c-8 -5 -27 -7 -42 -4 -29 6 -108 -22 -108 -39 0 -11 7 -10
40 7 29 15 48 17 163 15 32 0 57 4 57 10 0 5 -12 10 -27 10 -16 0 -37 3 -48 5
-11 3 -27 1 -35 -4z"/>
<path d="M870 5323 c-28 -12 -44 -13 -89 -4 -30 6 -57 9 -59 6 -12 -12 13 -19
73 -23 63 -4 125 10 125 29 0 12 -8 10 -50 -8z"/>
<path d="M4936 6185 c-43 -15 -98 -63 -90 -77 4 -6 21 4 38 21 18 17 48 36 66
41 37 11 63 -1 107 -48 15 -17 23 -20 23 -10 0 18 -58 74 -85 81 -11 3 -37 0
-59 -8z"/>
<path d="M4928 6119 c-26 -15 -23 -32 3 -18 26 14 63 -2 96 -40 23 -26 23 -26
23 -4 0 16 -13 31 -40 48 -43 27 -56 30 -82 14z"/>
<path d="M4886 6061 c-19 -21 -13 -47 16 -62 15 -8 17 -13 7 -25 -9 -11 -8
-14 5 -14 30 0 31 31 2 53 -21 15 -24 22 -15 33 6 8 18 14 25 14 8 0 14 5 14
10 0 17 -36 11 -54 -9z"/>
<path d="M4960 6021 c-26 -50 -2 -105 45 -99 41 4 44 26 3 25 -30 -2 -33 1
-36 31 -3 27 1 35 17 39 27 7 27 23 1 23 -10 0 -24 -9 -30 -19z"/>
<path d="M1967 3331 c-43 -16 -81 -31 -84 -35 -17 -17 10 -12 85 15 110 38
198 40 261 4 49 -28 51 -29 51 -15 0 5 -22 21 -50 35 -69 35 -158 34 -263 -4z"/>
<path d="M2045 3263 c-40 -6 -167 -41 -173 -48 -15 -14 11 -13 71 4 135 39
234 36 299 -10 33 -24 54 -16 23 8 -50 38 -146 58 -220 46z"/>
<path d="M1010 1602 c0 -13 39 -46 46 -39 3 3 -4 15 -15 26 -23 23 -31 26 -31
13z"/>
<path d="M1120 1532 c0 -5 7 -13 16 -16 10 -4 14 -1 12 6 -5 15 -28 23 -28 10z"/>
<path d="M4785 2312 c-64 -20 -102 -25 -187 -26 -60 -1 -108 -4 -108 -7 0 -12
44 -19 110 -18 73 0 271 48 278 67 5 15 3 15 -93 -16z"/>
<path d="M4735 2180 c-60 -21 -136 -41 -167 -45 -32 -4 -58 -11 -58 -17 0 -17
112 3 235 44 116 38 161 59 120 57 -11 -1 -69 -19 -130 -39z"/>
<path d="M4960 8111 c0 -11 1 -11 107 -40 55 -15 82 -29 110 -56 21 -20 53
-45 72 -55 28 -14 38 -28 52 -71 13 -38 15 -58 7 -72 -5 -10 -7 -26 -4 -34 11
-27 -33 -48 -94 -45 -59 2 -97 -16 -87 -42 9 -24 105 -94 141 -105 19 -5 45
-7 59 -4 19 4 27 0 32 -16 7 -24 73 -61 108 -61 29 0 49 21 45 46 -3 15 4 17
47 15 33 -1 66 5 97 19 l48 21 192 -41 c106 -22 450 -94 763 -160 893 -186
1288 -270 1309 -276 12 -4 17 -2 14 7 -3 8 -121 37 -329 81 -875 182 -1903
398 -1913 401 -5 2 15 21 44 42 l52 40 -7 98 c-5 68 -4 97 4 97 6 0 129 -27
273 -61 1553 -359 1983 -457 1987 -454 2 3 2 7 -1 11 -5 5 -546 131 -1745 407
l-532 122 -25 75 c-17 54 -21 80 -14 93 5 10 7 21 4 25 -15 14 -29 -22 -37
-99 -17 -154 -30 -223 -55 -305 -29 -97 -56 -127 -112 -127 -62 0 -66 9 -29
56 20 26 44 77 61 132 16 50 37 107 47 127 14 28 19 59 19 123 0 50 -4 85 -10
85 -6 0 -10 -34 -10 -83 0 -61 -5 -94 -19 -123 -10 -21 -31 -77 -46 -124 -43
-132 -89 -180 -175 -180 -22 0 -40 3 -40 6 0 3 20 25 44 49 29 30 47 58 55 89
6 24 22 58 36 75 67 79 97 229 53 267 -21 19 -21 19 -13 -1 29 -69 6 -178 -55
-254 -15 -20 -33 -56 -40 -81 -13 -48 -80 -123 -125 -140 -36 -14 -87 5 -140
52 -41 36 -45 42 -30 51 10 5 42 7 71 4 31 -3 54 -2 54 4 0 5 11 15 25 21 19
8 24 16 19 31 -3 11 0 30 7 43 10 20 10 29 -1 49 -10 20 -11 28 -2 37 17 17
15 31 -3 24 -10 -3 -15 1 -15 12 0 11 -13 23 -34 30 -19 7 -57 33 -84 57 -38
34 -65 49 -121 64 -40 11 -81 23 -92 26 -10 4 -19 2 -19 -4z m823 -168 c9 -38
19 -104 23 -148 l6 -80 -38 -30 c-22 -17 -52 -39 -68 -49 -28 -18 -29 -18 -24
0 42 142 60 223 65 292 3 45 9 82 13 82 3 0 14 -30 23 -67z m-293 -382 c0 -16
-6 -31 -12 -34 -15 -5 -74 17 -96 36 -13 10 -7 13 34 18 27 3 55 7 62 7 7 1
12 -10 12 -27z"/>
</g>
</svg>
