<?xml version="1.0" standalone="no"?>
<!DOCTYPE svg PUBLIC "-//W3C//DTD SVG 20010904//EN"
 "http://www.w3.org/TR/2001/REC-SVG-20010904/DTD/svg10.dtd">
<svg version="1.0" xmlns="http://www.w3.org/2000/svg"
 width="600.000000pt" height="510.000000pt" viewBox="0 0 600.000000 510.000000"
 preserveAspectRatio="xMidYMid meet">

<g transform="translate(0.000000,510.000000) scale(0.100000,-0.100000)"
fill="#000000" stroke="none">
<path d="M997 5033 c-30 -38 -61 -74 -70 -81 -9 -7 -19 -26 -22 -42 -4 -16
-27 -64 -53 -107 -63 -105 -118 -224 -137 -301 -13 -51 -15 -80 -7 -150 9 -86
9 -88 -19 -132 -16 -25 -52 -95 -81 -155 l-52 -110 -8 -144 c-8 -136 -7 -146
11 -165 11 -12 23 -41 27 -66 l7 -44 -68 58 c-88 75 -109 84 -134 62 -25 -23
-46 -151 -31 -191 6 -15 46 -62 88 -104 111 -108 114 -112 103 -147 -5 -16
-17 -55 -26 -88 -12 -44 -19 -56 -28 -47 -6 6 -21 11 -33 11 -17 0 -24 -9 -34
-46 -7 -26 -14 -61 -14 -78 -1 -17 -5 -36 -8 -41 -4 -6 3 -26 14 -44 l21 -33
12 29 c30 70 125 130 243 153 60 12 328 9 417 -5 113 -17 190 -37 250 -64 l65
-30 -19 -50 c-42 -111 -105 -192 -209 -270 -69 -53 -137 -82 -283 -125 -188
-56 -290 -166 -257 -279 10 -33 20 -43 72 -69 34 -17 88 -41 121 -53 51 -19
61 -27 67 -54 9 -34 5 -32 121 -36 37 -2 71 -5 74 -9 4 -3 -4 -30 -16 -59 -45
-103 -51 -118 -51 -135 0 -9 -9 -53 -20 -97 -11 -44 -25 -123 -31 -175 -7 -52
-15 -98 -18 -102 -12 -13 4 -297 17 -310 8 -8 12 -45 12 -109 0 -94 -1 -97
-24 -103 -23 -6 -35 -4 -73 11 -10 3 -20 7 -23 8 -3 0 -14 4 -25 7 -11 3 -38
9 -60 12 -31 4 -35 3 -17 -4 25 -11 31 -33 6 -23 -9 3 -19 2 -23 -4 -9 -14
-191 2 -201 17 -5 7 -17 14 -28 15 -11 0 -36 13 -56 29 -47 36 -46 17 1 -24
77 -68 102 -74 358 -75 130 0 237 -5 245 -10 23 -15 226 -42 242 -32 7 5 39 3
73 -5 l60 -13 22 -115 c12 -63 26 -133 31 -155 9 -32 7 -46 -8 -76 -43 -83
-44 -114 -10 -244 24 -89 31 -131 27 -167 l-6 -48 1433 0 1434 0 16 35 c21 44
22 69 7 176 -6 48 -9 94 -5 102 3 9 0 26 -7 39 -7 12 -11 44 -10 71 1 34 -2
47 -11 45 -8 -2 -12 5 -11 19 2 13 -2 23 -7 23 -11 0 -14 300 -3 399 l6 63 41
-6 c23 -3 52 -8 66 -10 14 -2 27 -5 30 -6 3 -1 8 -2 13 -1 4 0 7 -6 7 -15 0
-15 21 -16 22 -1 1 9 -22 244 -27 279 l-4 26 217 5 c253 5 335 15 462 53 60
17 128 29 230 39 36 4 87 16 114 27 28 11 73 27 100 35 79 23 106 41 123 80
12 29 12 45 3 81 -12 47 -6 82 14 82 17 0 70 42 75 60 12 44 11 95 -3 137 -18
53 -20 77 -6 68 6 -4 9 3 7 16 -1 16 8 29 32 46 19 13 29 23 23 23 -7 0 -9 19
-5 54 7 72 -1 99 -43 144 -34 37 -35 37 -12 44 22 6 22 6 -4 7 -24 1 -129 -20
-182 -36 -11 -3 -16 -1 -12 5 3 6 21 13 39 17 65 13 156 47 169 62 7 9 8 14 2
10 -8 -5 -15 13 -23 54 -13 75 -47 138 -86 160 -26 15 -45 16 -140 9 -60 -5
-139 -15 -175 -24 -36 -8 -96 -18 -133 -22 l-68 -7 6 29 c5 20 4 25 -3 15 -7
-10 -14 -11 -28 -2 -14 8 -15 11 -4 11 13 0 13 2 1 9 -10 7 -24 3 -42 -10 -29
-20 -44 -25 -35 -10 3 5 -1 11 -9 15 -9 3 -15 18 -15 39 0 71 -45 154 -100
182 -48 25 -86 19 -149 -25 -32 -21 -89 -51 -127 -66 -40 -16 -82 -43 -103
-64 -20 -20 -88 -119 -151 -220 l-115 -183 -3 49 c-8 109 24 601 53 817 8 59
15 136 15 170 l1 62 75 49 c41 27 88 66 104 86 l29 37 -20 64 c-22 72 -41 156
-69 309 -36 202 -95 407 -177 615 -91 234 -117 267 -308 394 -187 125 -213
138 -358 187 -71 24 -141 51 -154 59 -42 28 -55 17 -77 -70 l-21 -80 -70 -9
c-125 -17 -296 6 -590 78 -143 36 -294 68 -335 71 -41 4 -85 12 -98 18 -17 8
-25 8 -30 0 -5 -9 -19 -9 -47 -3 -22 5 -306 10 -632 10 l-592 0 -54 -67z m169
-980 c43 -20 111 -48 149 -63 l70 -26 1 -65 1 -66 -123 5 c-75 3 -124 1 -124
-5 0 -28 -33 -45 -129 -68 -57 -14 -132 -39 -166 -55 -76 -36 -162 -111 -183
-160 -14 -31 -16 -32 -20 -13 -7 44 28 188 63 259 37 76 96 135 191 192 27 16
76 46 108 66 33 20 65 36 72 36 6 0 47 -17 90 -37z m432 -167 c35 -14 78 -34
96 -45 38 -24 116 -105 116 -121 0 -14 -35 -79 -58 -108 -18 -23 -18 -23 -35
-4 -10 11 -20 29 -22 42 -2 12 -6 23 -7 24 -2 1 -21 15 -43 32 -23 17 -65 44
-95 59 -30 15 -56 29 -58 30 -6 5 31 115 38 115 3 0 34 -11 68 -24z m290 -382
c2 -50 1 -109 -3 -130 l-8 -39 -17 55 c-9 30 -27 75 -39 99 -25 48 -20 77 21
121 20 21 22 21 31 4 5 -9 12 -59 15 -110z m-366 -615 c13 -5 38 -38 55 -72
18 -34 53 -86 79 -114 25 -29 42 -53 37 -53 -4 0 -2 -4 6 -9 10 -7 12 -20 5
-57 -4 -27 -8 -55 -7 -61 0 -7 -3 -10 -8 -7 -5 3 -9 -1 -9 -8 0 -7 -19 -50
-42 -96 -40 -77 -43 -81 -51 -58 -12 35 -29 33 -21 -1 6 -27 6 -27 -9 -8 -19
25 -26 19 -29 -26 -2 -18 -7 -38 -13 -42 -6 -6 -6 -10 3 -14 6 -2 12 -9 12
-14 0 -12 -47 -11 -90 2 -19 5 -70 10 -112 9 -67 0 -83 -4 -133 -32 -31 -18
-51 -34 -45 -36 6 -2 22 3 35 12 32 21 32 6 -1 -44 -29 -43 -43 -48 -77 -26
-12 8 -52 18 -88 22 -62 6 -67 5 -82 -17 l-17 -23 -57 18 c-86 27 -171 76
-178 103 -3 13 1 38 9 56 30 73 129 135 281 177 113 31 197 73 273 138 96 81
117 108 164 204 46 92 58 101 110 77z m99 -104 l10 -20 -16 20 c-9 11 -21 29
-26 40 l-10 20 16 -20 c9 -11 21 -29 26 -40z m87 -61 c-7 -6 -68 63 -68 76 0
6 16 -8 36 -30 20 -22 35 -43 32 -46z m200 -204 c17 -29 0 -24 -21 5 -11 16
-13 23 -5 20 8 -3 19 -14 26 -25z m-37 -35 l10 -20 -16 20 c-9 11 -21 29 -26
40 l-10 20 16 -20 c9 -11 21 -29 26 -40z m3663 -69 c-43 -50 -51 -53 -80 -31
-18 15 -18 16 10 39 16 14 39 27 50 30 20 4 20 4 2 -7 -10 -7 -28 -20 -40 -29
-18 -15 -19 -19 -6 -28 11 -7 18 -5 27 7 29 39 65 74 70 69 3 -3 -12 -25 -33
-50z m62 -67 c-15 -33 -15 -30 0 36 4 16 1 15 -20 -8 -30 -33 -33 -52 -8 -66
9 -6 12 -11 6 -11 -6 0 -18 8 -28 18 -15 18 -15 21 6 48 12 16 29 34 38 41 22
17 25 -15 6 -58z m-143 -20 c12 -7 23 -13 25 -14 5 -4 -39 -149 -47 -158 -4
-4 -22 0 -40 10 -37 21 -37 38 0 123 23 53 28 56 62 39z m100 -137 l-8 -40
-28 22 c-27 22 -28 25 -17 66 l12 43 25 -25 c22 -22 24 -30 16 -66z m-623 18
c0 -5 -7 -10 -15 -10 -8 0 -15 5 -15 10 0 6 7 10 15 10 8 0 15 -4 15 -10z
m-562 -79 c41 -21 78 -57 65 -64 -4 -2 -30 -8 -57 -12 -27 -3 -54 -9 -61 -11
-7 -3 -30 13 -51 35 -21 23 -46 41 -55 41 -30 0 -31 18 -2 23 69 10 125 6 161
-12z m1052 -45 c0 -6 -5 -18 -10 -26 -8 -12 -10 -11 -10 6 0 12 -11 29 -25 38
-24 16 -26 16 -34 -6 -5 -13 -14 -34 -20 -48 -11 -25 -11 -25 -7 5 3 17 9 43
15 58 l11 28 40 -22 c22 -13 40 -27 40 -33z m108 13 c4 -10 -1 -9 -15 4 -25
22 -33 22 -33 -3 0 -11 -4 -20 -10 -20 -5 0 -7 7 -5 15 16 50 14 48 37 33 12
-8 24 -21 26 -29z m-3158 -27 c0 -16 -114 -41 -158 -35 -45 6 -53 16 -24 32
20 12 182 15 182 3z m270 -38 l25 -15 -25 7 c-14 3 -29 10 -34 15 -16 14 6 10
34 -7z m730 6 c10 -5 25 -23 33 -38 l14 -29 -146 -12 c-80 -7 -216 -26 -301
-42 l-154 -31 -20 29 c-11 15 -40 48 -65 71 -38 36 -42 43 -21 36 14 -4 30 -7
35 -7 6 1 122 6 260 13 137 6 251 13 254 16 8 8 92 4 111 -6z m-932 -17 c-10
-2 -26 -2 -35 0 -10 3 -2 5 17 5 19 0 27 -2 18 -5z m236 -37 c65 -45 104 -94
85 -107 -59 -37 -324 33 -433 114 -18 14 -17 15 16 19 20 2 35 1 33 -2 -2 -3
43 -5 100 -5 57 0 101 -3 99 -7 -3 -4 4 -7 13 -7 27 0 49 -6 64 -17 8 -6 21
-15 29 -19 13 -8 13 -7 1 9 -18 22 -59 43 -108 56 l-38 10 44 -4 c29 -3 61
-16 95 -40z m1789 -33 c63 -136 142 -437 135 -512 -8 -82 -25 -103 -93 -118
-33 -8 -80 -20 -104 -28 -43 -15 -43 -15 -37 8 3 13 12 84 20 159 l15 135 -29
84 c-27 79 -60 241 -60 301 0 22 6 28 38 36 74 20 76 19 115 -65z m-2107 -21
c49 -28 118 -60 154 -72 75 -25 187 -36 245 -23 l40 9 41 -56 c48 -65 71 -82
151 -108 45 -15 71 -18 109 -12 27 4 84 11 127 15 73 6 79 6 84 -13 7 -28 19
-31 90 -19 35 6 65 9 68 6 14 -14 26 -173 24 -324 -1 -118 2 -170 10 -173 21
-7 11 -19 -28 -31 -21 -6 -41 -18 -44 -26 -4 -8 -27 -17 -57 -21 -27 -4 -50
-11 -50 -16 0 -5 -4 -6 -10 -3 -5 3 -20 0 -32 -7 -13 -7 -34 -13 -48 -13 -17
0 -24 -5 -22 -15 3 -12 1 -12 -9 -3 -10 10 -15 9 -23 -3 -6 -8 -36 -19 -66
-24 -30 -6 -67 -12 -82 -15 -16 -3 -41 -7 -57 -9 -16 -2 -57 -19 -91 -37 -44
-24 -64 -30 -67 -21 -3 6 -15 12 -29 12 -17 0 -22 -4 -18 -15 4 -8 1 -15 -5
-15 -6 0 -11 5 -11 10 0 6 -7 10 -16 10 -8 0 -12 -5 -9 -10 3 -5 -1 -10 -9
-10 -9 0 -16 -5 -16 -11 0 -8 -5 -8 -15 1 -8 7 -12 16 -9 21 3 5 1 9 -5 9 -5
0 -13 -5 -16 -10 -4 -6 -11 -8 -16 -5 -5 4 -9 2 -9 -4 0 -5 -14 -9 -31 -9 -17
1 -34 -3 -37 -9 -4 -5 -25 -10 -46 -11 -22 -2 -43 -5 -47 -8 -4 -2 -9 5 -11
17 -3 22 -3 22 -28 -4 -14 -15 -34 -26 -45 -26 -20 0 -20 1 -1 8 19 7 19 8 0
13 -12 3 -36 -3 -54 -12 -18 -9 -42 -15 -52 -12 -12 3 -18 -1 -18 -12 0 -11
-9 -16 -26 -16 -14 0 -23 4 -19 10 3 6 -1 10 -9 10 -9 0 -16 5 -16 11 0 6 -7
9 -15 6 -8 -4 -17 -2 -20 3 -4 6 -12 10 -18 9 -9 0 -9 -2 1 -6 6 -2 12 -8 12
-13 0 -11 -59 -34 -67 -26 -3 3 1 6 10 6 9 0 17 4 17 9 0 5 -25 10 -56 10 -61
0 -74 5 -56 23 22 22 12 32 -10 10 -13 -11 -35 -24 -50 -27 -30 -8 -29 -11
-45 103 -9 61 -8 64 14 73 19 7 23 16 23 51 0 53 33 295 59 443 33 186 58 289
86 356 15 35 31 75 36 88 9 23 13 23 83 19 65 -4 82 -10 162 -56z m1077 -56
c4 -27 6 -50 3 -53 -2 -2 -30 -7 -62 -10 -67 -7 -84 -16 -84 -48 0 -20 -8 -23
-147 -40 l-146 -18 -46 24 c-40 21 -111 97 -111 118 0 6 294 65 375 75 17 2
70 3 120 2 l90 -1 8 -49z m-830 -13 c-7 -2 -19 -2 -25 0 -7 3 -2 5 12 5 14 0
19 -2 13 -5z m634 -149 c-3 -3 -12 -4 -19 -1 -8 3 -5 6 6 6 11 1 17 -2 13 -5z
m-92 -15 c-22 -4 -53 -8 -70 -7 -29 1 -29 1 5 8 19 4 51 7 70 8 l35 0 -40 -9z
m-1629 -614 l41 -17 10 -96 c6 -54 10 -98 9 -99 -1 -1 -13 -3 -26 -5 -14 -2
-31 -7 -39 -12 -10 -6 -12 -5 -7 2 10 16 -7 15 -22 0 -10 -10 -15 -10 -22 2
-5 8 -10 11 -10 5 0 -5 -5 -3 -10 5 -6 10 -10 11 -10 3 0 -7 -5 -13 -11 -13
-6 0 -9 7 -6 15 5 11 -2 13 -33 10 -38 -3 -39 -3 -44 33 -13 86 -18 171 -11
182 11 17 138 7 191 -15z m1594 -105 c0 -5 -5 -10 -11 -10 -5 0 -7 5 -4 10 3
6 8 10 11 10 2 0 4 -4 4 -10z m-2555 -60 c3 -6 -1 -7 -9 -4 -18 7 -21 14 -7
14 6 0 13 -4 16 -10z m1820 -110 c3 -5 -1 -10 -10 -10 -9 0 -13 5 -10 10 3 6
8 10 10 10 2 0 7 -4 10 -10z"/>
<path d="M5411 2298 c-5 -13 -16 -40 -25 -62 -15 -36 -15 -40 1 -52 10 -7 23
-14 28 -14 12 0 48 128 39 141 -10 17 -34 9 -43 -13z"/>
<path d="M5507 2225 c-7 -37 28 -55 37 -19 4 14 4 29 1 34 -12 19 -33 10 -38
-15z"/>
<path d="M2050 870 c-13 -8 -12 -10 3 -10 9 0 17 5 17 10 0 12 -1 12 -20 0z"/>
<path d="M4518 859 c6 -7 12 -24 12 -38 0 -27 15 -59 24 -50 10 10 -19 94 -34
97 -12 3 -13 1 -2 -9z"/>
<path d="M4540 671 c0 -6 5 -13 10 -16 6 -3 10 1 10 9 0 9 -4 16 -10 16 -5 0
-10 -4 -10 -9z"/>
<path d="M4520 611 c0 -20 6 -31 17 -33 9 -2 17 -13 18 -25 1 -12 -3 -21 -8
-20 -5 1 -10 -15 -12 -36 -4 -33 -2 -37 10 -27 8 7 15 22 15 34 1 20 1 20 11
3 6 -10 9 -27 6 -38 -3 -10 -1 -17 4 -13 5 3 9 -5 9 -17 0 -12 2 -20 5 -17 3
3 -3 50 -12 105 -12 74 -21 99 -30 96 -7 -3 -13 0 -13 6 0 6 -4 11 -10 11 -5
0 -10 -13 -10 -29z"/>
<path d="M4601 384 c0 -11 3 -14 6 -6 3 7 2 16 -1 19 -3 4 -6 -2 -5 -13z"/>
</g>
</svg>
