<?xml version="1.0" encoding="UTF-8"?>
<!DOCTYPE svg PUBLIC "-//W3C//DTD SVG 1.1//EN" "http://www.w3.org/Graphics/SVG/1.1/DTD/svg11.dtd">
<svg xmlns="http://www.w3.org/2000/svg" version="1.1" width="120px" height="120px" style="shape-rendering:geometricPrecision; text-rendering:geometricPrecision; image-rendering:optimizeQuality; fill-rule:evenodd; clip-rule:evenodd" xmlns:xlink="http://www.w3.org/1999/xlink">
<g><path style="opacity:0.958" fill="#e34040" d="M 40.5,100.5 C 40.5,99.5 40.5,98.5 40.5,97.5C 41.5,97.5 42.5,97.5 43.5,97.5C 43.5,96.1667 43.5,94.8333 43.5,93.5C 42.5,93.5 41.5,93.5 40.5,93.5C 40.5,92.5 40.5,91.5 40.5,90.5C 39.1667,90.5 37.8333,90.5 36.5,90.5C 36.5,91.5 36.5,92.5 36.5,93.5C 35.5,93.5 34.5,93.5 33.5,93.5C 33.5,94.8333 33.5,96.1667 33.5,97.5C 34.5,97.5 35.5,97.5 36.5,97.5C 36.5,98.5 36.5,99.5 36.5,100.5C 34.5,100.5 32.5,100.5 30.5,100.5C 30.5,78.8333 30.5,57.1667 30.5,35.5C 23.5,35.5 16.5,35.5 9.5,35.5C 9.5,30.1667 9.5,24.8333 9.5,19.5C 28.5,19.5 47.5,19.5 66.5,19.5C 66.5,24.8333 66.5,30.1667 66.5,35.5C 59.8333,35.5 53.1667,35.5 46.5,35.5C 46.5,57.1667 46.5,78.8333 46.5,100.5C 44.5,100.5 42.5,100.5 40.5,100.5 Z"/></g>
<g><path style="opacity:0.954" fill="#38509b" d="M 67.5,19.5 C 77.1667,19.5 86.8333,19.5 96.5,19.5C 96.5,46.5 96.5,73.5 96.5,100.5C 91.1667,100.5 85.8333,100.5 80.5,100.5C 80.5,89.8333 80.5,79.1667 80.5,68.5C 69.5,68.5 58.5,68.5 47.5,68.5C 47.5,63.1667 47.5,57.8333 47.5,52.5C 58.5,52.5 69.5,52.5 80.5,52.5C 80.5,46.8333 80.5,41.1667 80.5,35.5C 76.1667,35.5 71.8333,35.5 67.5,35.5C 67.5,30.1667 67.5,24.8333 67.5,19.5 Z"/></g>
<g><path style="opacity:0.779" fill="#38509b" d="M 101.5,19.5 C 109.336,18.3398 112.336,21.6732 110.5,29.5C 106.5,29.5 102.5,29.5 98.5,29.5C 97.8578,25.5251 98.8578,22.1918 101.5,19.5 Z M 103.5,22.5 C 105.645,22.7377 107.312,23.7377 108.5,25.5C 106.167,26.8333 103.833,26.8333 101.5,25.5C 102.193,24.4822 102.859,23.4822 103.5,22.5 Z"/></g>
<g><path style="opacity:0.766" fill="#38509b" d="M 98.5,31.5 C 102.5,31.5 106.5,31.5 110.5,31.5C 110.73,34.6944 110.064,37.6944 108.5,40.5C 108.939,42.1043 109.606,43.6043 110.5,45C 110.167,45.5 109.833,46 109.5,46.5C 106.087,45.3624 102.754,44.0291 99.5,42.5C 98.5713,41.3112 98.238,39.9778 98.5,38.5C 111.424,35.4083 111.424,34.0749 98.5,34.5C 98.5,33.5 98.5,32.5 98.5,31.5 Z"/></g>
<g><path style="opacity:0.792" fill="#38509b" d="M 98.5,47.5 C 102.5,47.5 106.5,47.5 110.5,47.5C 110.548,50.2919 109.215,52.1253 106.5,53C 107.793,53.49 109.127,53.6567 110.5,53.5C 110.5,54.5 110.5,55.5 110.5,56.5C 106.5,56.5 102.5,56.5 98.5,56.5C 98.6263,53.405 100.293,51.5717 103.5,51C 101.866,50.5065 100.199,50.3398 98.5,50.5C 98.5,49.5 98.5,48.5 98.5,47.5 Z"/></g>
<g><path style="opacity:0.746" fill="#38509b" d="M 98.5,58.5 C 102.5,58.5 106.5,58.5 110.5,58.5C 110.5,59.5 110.5,60.5 110.5,61.5C 109.167,61.5 107.833,61.5 106.5,61.5C 106.5,62.5 106.5,63.5 106.5,64.5C 107.833,64.5 109.167,64.5 110.5,64.5C 110.5,65.8333 110.5,67.1667 110.5,68.5C 106.5,68.5 102.5,68.5 98.5,68.5C 98.5,67.1667 98.5,65.8333 98.5,64.5C 100.167,64.5 101.833,64.5 103.5,64.5C 103.5,63.5 103.5,62.5 103.5,61.5C 101.833,61.5 100.167,61.5 98.5,61.5C 98.5,60.5 98.5,59.5 98.5,58.5 Z"/></g>
<g><path style="opacity:0.691" fill="#38509b" d="M 100.5,69.5 C 101.5,69.5 102.5,69.5 103.5,69.5C 103.617,71.4835 102.95,73.1502 101.5,74.5C 103.966,77.295 106.299,77.1284 108.5,74C 104.516,70.8018 105.016,69.6352 110,70.5C 112.704,76.1004 111.037,79.1004 105,79.5C 99.2455,79.7386 97.2455,77.0719 99,71.5C 99.7172,70.9558 100.217,70.2891 100.5,69.5 Z"/></g>
<g><path style="opacity:0.703" fill="#38509b" d="M 98.5,80.5 C 99.5,80.5 100.5,80.5 101.5,80.5C 101.201,82.604 101.534,84.604 102.5,86.5C 103.452,84.9547 103.785,83.288 103.5,81.5C 104.5,81.5 105.5,81.5 106.5,81.5C 106.215,83.288 106.548,84.9547 107.5,86.5C 108.167,84.5 108.833,82.5 109.5,80.5C 110.487,83.7683 110.82,87.1016 110.5,90.5C 107.5,90.5 104.5,90.5 101.5,90.5C 101.5,91.5 101.5,92.5 101.5,93.5C 104.5,93.5 107.5,93.5 110.5,93.5C 110.5,94.8333 110.5,96.1667 110.5,97.5C 107.5,97.5 104.5,97.5 101.5,97.5C 101.5,98.5 101.5,99.5 101.5,100.5C 100.5,100.5 99.5,100.5 98.5,100.5C 98.5,93.8333 98.5,87.1667 98.5,80.5 Z"/></g>
<g><path style="opacity:0.68" fill="#e34040" d="M 47.5,93.5 C 48.8333,93.5 50.1667,93.5 51.5,93.5C 51.5,94.5 51.5,95.5 51.5,96.5C 52.5,96.5 53.5,96.5 54.5,96.5C 54.5,97.8333 54.5,99.1667 54.5,100.5C 53.1667,100.5 51.8333,100.5 50.5,100.5C 50.5,99.5 50.5,98.5 50.5,97.5C 49.5,97.5 48.5,97.5 47.5,97.5C 47.5,96.1667 47.5,94.8333 47.5,93.5 Z"/></g>
<g><path style="opacity:1" fill="#f9c8c8" d="M 40.5,100.5 C 39.1667,100.5 37.8333,100.5 36.5,100.5C 36.5,99.5 36.5,98.5 36.5,97.5C 35.5,97.5 34.5,97.5 33.5,97.5C 33.5,96.1667 33.5,94.8333 33.5,93.5C 34.5,93.5 35.5,93.5 36.5,93.5C 36.5,92.5 36.5,91.5 36.5,90.5C 37.8333,90.5 39.1667,90.5 40.5,90.5C 40.5,91.5 40.5,92.5 40.5,93.5C 41.5,93.5 42.5,93.5 43.5,93.5C 43.5,94.8333 43.5,96.1667 43.5,97.5C 42.5,97.5 41.5,97.5 40.5,97.5C 40.5,98.5 40.5,99.5 40.5,100.5 Z"/></g>
<g><path style="opacity:1" fill="#e34040" d="M 37.5,94.5 C 39.337,94.6395 39.6704,95.3061 38.5,96.5C 37.7025,96.0431 37.3691,95.3764 37.5,94.5 Z"/></g>
<g><path style="opacity:0.661" fill="#e34040" d="M 55.5,96.5 C 56.8333,96.5 58.1667,96.5 59.5,96.5C 59.5,97.8333 59.5,99.1667 59.5,100.5C 58.1667,100.5 56.8333,100.5 55.5,100.5C 55.5,99.1667 55.5,97.8333 55.5,96.5 Z"/></g>
</svg>
